<svg width="107" height="22" viewBox="0 0 107 22" fill="none" xmlns="http://www.w3.org/2000/svg">
<g clip-path="url(#clip0_97_622)">
<path d="M16.5772 1.28882C16.8563 1.01016 16.8563 0.656324 16.5772 0.377657C16.4377 0.238324 16.2284 0.168657 16.1586 0.168657H7.58754C5.97099 0.0229071 4.49398 0.586657 3.37222 1.56749C2.25047 2.61799 1.54639 4.09291 1.47662 5.63749L1.12779 10.2648C0.848729 11.7397 1.26732 13.1386 2.24955 14.3348C3.37131 15.3853 4.84832 15.8794 6.32533 15.7401H8.22093C8.56976 15.6704 8.85433 15.3917 8.85433 15.0379L9.06363 12.7912C9.1334 12.4428 8.78457 12.089 8.5 12.0193H8.43023H7.30847C6.81461 12.089 6.25648 11.88 5.83146 11.6013C5.48263 11.253 5.41287 10.6205 5.48263 10.0567L5.83146 5.91707C5.83146 5.35424 6.11052 4.79691 6.39509 4.37249C6.81369 4.02416 7.37732 3.95449 7.94187 3.95449H13.704C14.4071 3.95449 15.0414 3.60616 15.46 3.04332L16.5772 1.28882Z" fill="#06AF72"/>
<path d="M0.209297 20.856C-0.0697656 21.1346 -0.0697656 21.4885 0.209297 21.7671C0.348828 21.9065 0.558125 21.9761 0.62789 21.9761H9.26781C10.8146 22.1155 12.4311 21.6278 13.5529 20.5012C14.6746 19.4507 15.309 17.9758 15.3787 16.4312L15.7276 11.8039C16.0066 10.329 15.5183 8.93013 14.6058 7.73388C13.484 6.68338 12.007 6.18929 10.4603 6.25896H8.56465C8.21582 6.32863 7.93125 6.60729 7.93125 6.96113L7.65219 9.20788C7.58242 9.55621 7.93125 9.91004 8.28558 9.97971H8.35535H9.47711C9.97097 9.91004 10.5291 10.119 10.9541 10.3977C11.3029 10.8157 11.3029 11.3785 11.3029 11.9423L10.9541 16.082C10.9541 16.6448 10.6751 17.2021 10.3905 17.6265C9.97189 17.9749 9.40826 18.1197 8.84371 18.0445H3.09355C2.39039 18.0445 1.75607 18.3929 1.33748 18.9557L0.209297 20.856Z" fill="#06AF72"/>
<path d="M29.5028 21.9129H18.4027C17.9841 21.9129 17.6995 21.6342 17.7693 21.2107L19.5254 0.865314C19.5254 0.51698 19.8742 0.163147 20.2285 0.163147C20.2983 0.163147 20.2983 0.163147 20.2983 0.163147H31.3984C31.817 0.163147 32.0318 0.441814 32.0318 0.865314L31.7527 3.18173C31.7527 3.53006 31.4039 3.8839 31.1193 3.8839C31.0496 3.8839 31.0496 3.8839 30.9798 3.8839H23.9555C23.6067 3.8839 23.6067 4.02323 23.5369 4.23223L23.1881 8.72023C23.1881 8.9989 23.3276 9.06856 23.5369 9.06856H29.3633C29.7818 9.06856 30.0664 9.34723 29.9967 9.77073L29.7874 12.0175C29.7874 12.3658 29.4385 12.7196 29.154 12.7196C29.0842 12.7196 29.0842 12.7196 29.0144 12.7196H23.1826C22.8337 12.7196 22.8337 12.859 22.8337 13.068L22.4849 17.765C22.4849 18.0436 22.6244 18.1133 22.8337 18.1133H29.9278C30.3464 18.1133 30.5612 18.392 30.5612 18.8155L30.2124 21.0622C30.2124 21.4106 29.8635 21.7644 29.579 21.7644C29.5726 21.9129 29.5726 21.9129 29.5028 21.9129Z" fill="#091B2A"/>
<path d="M41.5855 21.9129H37.8641C36.3173 22.0522 34.9165 21.5646 33.7883 20.438C32.8759 19.3178 32.4508 17.7732 32.6666 16.368L33.579 5.56873C33.6488 4.02415 34.2822 2.55565 35.4049 1.42907C36.5964 0.448233 38.1432 -0.115517 39.6899 0.0238163H43.4114C44.8884 -0.115517 46.2892 0.37215 47.4872 1.49873C48.3996 2.6189 48.8246 4.09382 48.6089 5.56873L48.4694 7.11332C48.4694 7.46165 48.1206 7.88515 47.7662 7.88515C47.6965 7.88515 47.6965 7.88515 47.6267 7.88515H44.7489C44.3303 7.88515 44.0457 7.60648 44.1155 7.11332L44.255 5.77773C44.3945 5.28457 44.255 4.65757 43.9062 4.23315C43.5573 3.88482 42.9239 3.73998 42.3594 3.81515H39.9699C39.4063 3.74548 38.8482 3.95448 38.4231 4.23315C38.0743 4.58148 37.8595 5.21398 37.8595 5.77773L36.947 16.0893C36.8075 16.5825 36.947 17.2095 37.2959 17.6339C37.6447 17.9822 38.2083 18.1271 38.7729 18.0519H41.0926C41.6562 18.1216 42.2143 17.9126 42.6394 17.6339C42.9882 17.2856 43.203 16.6531 43.203 16.0893L43.3425 14.6841C43.3425 14.3357 43.6914 13.9819 44.0457 13.9122C44.1155 13.9122 44.1155 13.9122 44.1852 13.9122H46.9933C47.4119 13.9122 47.6965 14.1909 47.6965 14.6841L47.5569 16.368C47.4872 17.9126 46.8538 19.3811 45.6613 20.438C44.4698 21.4188 42.923 21.9826 41.3762 21.9129" fill="#091B2A"/>
<path d="M57.3895 21.9129H54.5815C54.1629 21.9129 53.8085 21.6342 53.8783 21.2107L55.4251 4.23315C55.4251 3.95448 55.3553 3.88481 55.0763 3.88481H51.14C50.7214 3.88481 50.4369 3.60615 50.5066 3.18265L50.7857 0.866229C50.7857 0.517896 51.1345 0.164062 51.4888 0.164062C51.5586 0.164062 51.5586 0.164062 51.5586 0.164062H64.4148C64.8333 0.164062 65.1179 0.442729 65.0482 0.866229L64.7691 3.18265C64.7691 3.53098 64.4203 3.88481 64.0659 3.88481C63.9962 3.88481 63.9962 3.88481 63.9962 3.88481H60.0599C59.7111 3.88481 59.7111 4.02415 59.6413 4.23315L58.0945 21.2107C58.0927 21.6287 57.8136 21.9129 57.3895 21.9129Z" fill="#091B2A"/>
<path d="M71.5121 0.865293L69.6863 21.2804C69.6863 21.6287 69.3375 21.9825 68.9831 21.9825C68.9134 21.9825 68.9134 21.9825 68.9134 21.9825H66.0355C65.6169 21.9825 65.3324 21.7039 65.4021 21.2804L67.228 0.865293C67.228 0.516959 67.5768 0.163126 67.9311 0.163126C68.0009 0.163126 68.0009 0.163126 68.0009 0.163126H70.8787C71.2973 0.0925427 71.5819 0.377626 71.5121 0.865293Z" fill="#091B2A"/>
<path d="M99.3296 21.9129H95.4686C93.9916 22.0522 92.521 21.5645 91.3928 20.438C90.4803 19.3178 90.0553 17.7732 90.271 16.368L91.1835 5.56871C91.2533 4.02412 91.8867 2.55562 93.0093 1.42904C94.2009 0.448207 95.7476 -0.115543 97.2944 0.0237903H101.155C102.632 -0.115543 104.103 0.372124 105.231 1.42904C106.144 2.54921 106.569 4.09379 106.353 5.56871L105.371 16.368C105.301 17.9125 104.668 19.381 103.545 20.438C102.486 21.559 100.87 22.0522 99.3296 21.9129ZM96.4453 18.1912H98.9045C99.4682 18.2609 100.026 18.0519 100.451 17.7732C100.8 17.4249 101.015 16.7924 101.015 16.2286L101.927 5.91704C102.067 5.42387 101.927 4.79687 101.579 4.37246C101.23 4.02412 100.596 3.87929 100.032 3.95446H97.6423C97.0787 3.88479 96.5206 4.09379 96.0956 4.37246C95.7467 4.72079 95.5319 5.35329 95.5319 5.91704L94.6195 16.2286C94.4799 16.7218 94.6195 17.3488 94.9683 17.7732C95.4622 18.0519 95.9569 18.2609 96.4453 18.1912Z" fill="#091B2A"/>
<path d="M84.8567 7.39108H87.7346C88.0834 7.46074 88.5075 7.11241 88.5075 6.75858C88.5075 6.68891 88.5075 6.68891 88.5075 6.61924L88.5773 5.63841C88.9261 4.16349 88.4377 2.69499 87.4555 1.56841C86.4035 0.517909 84.9265 0.0238258 83.3797 0.0934925H79.7978C78.251 -0.0458409 76.7043 0.441826 75.5127 1.49874C74.391 2.61891 73.7567 4.09383 73.6869 5.63841L72.7744 16.4377C72.4256 17.9126 72.914 19.3811 73.8962 20.5077C75.018 21.5582 76.495 22.0522 77.972 21.9826H81.6237C83.1704 22.0522 84.7172 21.5646 85.839 20.5077C86.9607 19.3875 87.595 17.9126 87.6648 16.4377L88.0834 10.8286C88.0834 10.3354 87.8741 9.98708 87.3802 9.98708H80.635C80.2862 9.98708 79.8621 10.3354 79.8621 10.7589C79.8621 10.8982 79.8621 11.0376 79.9318 11.1072L80.8443 12.8608C81.1931 13.4237 81.7568 13.772 82.3911 13.772H83.164C83.4431 13.772 83.5128 13.9113 83.5128 14.1203L83.3035 16.2974C83.3035 16.8602 83.0942 17.4176 82.7399 17.842C82.3213 18.1903 81.6879 18.26 81.1234 18.1903H79.0185C78.5246 18.26 77.9665 18.051 77.5415 17.7723C77.1926 17.3543 77.1926 16.7915 77.1926 16.2277L78.1051 5.91616C78.1051 5.35333 78.3841 4.79599 78.6687 4.37158C79.0873 4.02324 79.6509 3.95358 80.2155 3.95358H82.3957C82.8895 3.88391 83.5174 4.09291 83.9424 4.37158C84.2913 4.78958 84.2913 5.35241 84.2913 5.91616L84.2233 6.75858C84.1536 7.25174 84.3629 7.39108 84.8567 7.39108Z" fill="#091B2A"/>
</g>
<defs>
<clipPath id="clip0_97_622">
<rect width="106.408" height="22" fill="white"/>
</clipPath>
</defs>
</svg>
