<?xml version="1.0" encoding="utf-8"?>
<!-- Generator: Adobe Illustrator 27.7.0, SVG Export Plug-In . SVG Version: 6.00 Build 0)  -->
<!DOCTYPE svg PUBLIC "-//W3C//DTD SVG 1.1//EN" "http://www.w3.org/Graphics/SVG/1.1/DTD/svg11.dtd" [
	<!ENTITY ns_extend "http://ns.adobe.com/Extensibility/1.0/">
	<!ENTITY ns_ai "http://ns.adobe.com/AdobeIllustrator/10.0/">
	<!ENTITY ns_graphs "http://ns.adobe.com/Graphs/1.0/">
	<!ENTITY ns_vars "http://ns.adobe.com/Variables/1.0/">
	<!ENTITY ns_imrep "http://ns.adobe.com/ImageReplacement/1.0/">
	<!ENTITY ns_sfw "http://ns.adobe.com/SaveForWeb/1.0/">
	<!ENTITY ns_custom "http://ns.adobe.com/GenericCustomNamespace/1.0/">
	<!ENTITY ns_adobe_xpath "http://ns.adobe.com/XPath/1.0/">
]>
<svg version="1.1" id="Layer_1" xmlns:x="&ns_extend;" xmlns:i="&ns_ai;" xmlns:graph="&ns_graphs;"
	 xmlns="http://www.w3.org/2000/svg" xmlns:xlink="http://www.w3.org/1999/xlink" x="0px" y="0px" width="212.273px" height="24px"
	 viewBox="0 0 212.273 24" style="enable-background:new 0 0 212.273 24;" xml:space="preserve">
<style type="text/css">
	.st0{fill:#CF0A2C;}
</style>
<metadata>
	<sfw  xmlns="&ns_sfw;">
		<slices></slices>
		<sliceSourceBounds  bottomLeftOrigin="true" height="24" width="212.273" x="-48.894" y="-5.528"></sliceSourceBounds>
	</sfw>
</metadata>
<g>
	<path class="st0" d="M52.773,13.834c-0.232,1.676-0.812,2.935-1.624,3.983c-1.161,1.257-3.017,2.095-5.57,2.095h-1.507
		c-2.553,0-4.409-0.734-5.221-1.886c-0.58-0.944-0.695-2.201-0.349-3.877l0.58-3.773c0.349-1.991,1.161-3.564,2.436-4.611
		c1.276-1.048,3.017-1.467,5.221-1.467h1.392c1.507,0,3.365,0.21,4.524,1.363c0.929,1.048,1.161,2.41,0.929,4.507L52.773,13.834z
		 M48.248,0h-1.392C37.11,0.106,32.003,3.458,30.96,9.851l-0.58,4.192c-0.464,2.829,0.232,5.03,1.856,6.603
		C34.323,22.532,37.92,24,43.373,24h1.392c9.514-0.104,14.62-3.354,15.779-9.328l0.115-0.419l0.695-4.192
		c0.464-2.935-0.232-5.24-1.973-6.812C57.298,1.363,53.701,0.106,48.248,0z"/>
	<path class="st0" d="M130.972,13.834c-0.232,1.676-0.812,2.935-1.741,3.983c-1.276,1.257-3.017,2.095-5.57,2.095h-1.509
		c-2.553,0-4.409-0.734-5.221-1.886c-0.464-0.944-0.695-2.201-0.349-3.877l0.58-3.773c0.349-1.991,1.044-3.564,2.436-4.611
		c1.276-1.048,3.017-1.467,5.104-1.467h1.392c1.507,0,3.48,0.21,4.524,1.363c0.929,1.048,1.161,2.41,0.929,4.507L130.972,13.834z
		 M126.563,0h-1.392c-9.745,0.106-14.852,3.458-15.896,9.851l-0.695,4.192c-0.349,2.829,0.232,5.03,1.856,6.603
		C112.523,22.532,116.12,24,121.573,24h1.392c9.514-0.104,14.618-3.354,15.779-9.328l0.115-0.419l0.697-4.192
		c0.464-2.935-0.232-5.24-1.973-6.812C135.613,1.363,132.016,0.106,126.563,0z"/>
	<path class="st0" d="M203.602,13.834c-0.232,1.676-0.812,2.935-1.741,3.983c-1.159,1.257-3.017,2.095-5.568,2.095h-1.509
		c-2.551,0-4.409-0.734-5.221-1.886c-0.58-0.944-0.695-2.201-0.347-3.877l0.578-3.773c0.349-1.991,1.161-3.564,2.438-4.611
		c1.276-1.048,3.017-1.467,5.219-1.467h1.392c1.509,0,3.482,0.21,4.526,1.363c0.927,1.048,1.161,2.41,0.927,4.507L203.602,13.834z
		 M210.216,3.248C208.126,1.363,204.531,0,199.078,0h-1.392c-9.747,0.106-14.737,3.458-15.896,9.851l-0.695,4.192
		c-0.349,2.829,0.232,5.03,1.856,6.603c2.088,1.886,5.687,3.354,11.14,3.354h1.392c9.514-0.104,14.618-3.354,15.779-9.328
		l0.115-0.419l0.697-4.192C212.652,7.127,211.955,4.926,210.216,3.248z"/>
	<path class="st0" d="M151.045,7.127l0.812,0.104c0.929,0.106,1.507,0.525,1.856,0.838c0.695,0.629,1.044,1.572,0.812,2.516
		l-1.044,6.918l-0.232,1.782v0.106h4.641c0.232,0,0.695,0,1.161-0.106c2.088-0.21,5.453-0.944,6.497-3.145l0.115-0.21
		c0.232-0.629,0.349-1.257,0.464-1.886l0.349-2.41l0.232-1.153c0.117-0.944,0.117-1.782,0-2.62c-0.349-2.201-3.597-2.935-5.57-3.145
		c-0.464,0-0.812-0.106-1.161-0.106h-8.238c-1.161-0.106-1.856-0.21-2.205-0.419c-0.929-0.629-1.507-1.572-1.507-2.935V0.525h12.415
		c6.148,0.106,10.211,1.048,12.413,3.145c1.624,1.572,2.321,3.667,1.856,6.393l-0.232,1.467l-0.349,2.307l-0.115,1.153
		c-0.349,1.467-0.812,2.726-1.507,3.773c-0.812,1.153-1.856,2.097-3.248,2.829c-0.464,0.21-0.929,0.419-1.507,0.629
		c-1.044,0.419-2.321,0.734-3.712,0.944c-0.464,0.104-1.044,0.104-1.856,0.21c-0.929,0.104-2.088,0.104-3.365,0.104h-9.514
		c-2.088,0-3.248-0.313-3.946-0.944l-0.349-0.419c-0.232-0.315-0.349-0.838-0.232-1.363l1.044-6.393l1.044-7.337h4.177
		C151.045,7.022,151.045,7.127,151.045,7.127z"/>
	<path class="st0" d="M25.507,19.285H14.485c-1.507,0-2.668-0.104-3.597-0.315c-0.929-0.21-1.624-0.525-2.088-1.048
		c-0.465-0.315-0.697-0.734-0.812-1.153v-0.106l-0.117-0.732c0-0.525,0-1.257,0.117-1.991l0.578-3.564
		c0.117-0.419,0.117-0.734,0.234-1.153l0.117-0.419l0.349-0.838l0.117-0.21l0.464-0.629l0.464-0.525
		c0.578-0.629,1.507-1.048,2.551-1.467c1.044-0.315,2.551-0.525,4.292-0.525h6.148c1.161-0.106,1.856-0.21,2.436-0.525
		s1.044-0.734,1.507-1.153l0.234-0.208c0.349-0.419,0.58-0.944,0.812-1.572l0.232-0.734h-12.53c-1.392,0-2.668,0.106-3.829,0.21
		C5.319,1.467,1.607,4.611,0.678,9.851l-0.58,4.192c-0.349,2.726,0.232,4.821,1.856,6.287c1.856,1.782,5.104,2.935,9.862,3.145
		h8.353c1.161-0.104,2.205-0.104,2.668-0.419c0.697-0.315,1.276-0.944,1.741-1.572l0.349-0.525
		C24.928,21.065,25.275,20.227,25.507,19.285z"/>
	<path class="st0" d="M75.281,19.808v0.315c-0.117,0.944-0.695,1.886-1.624,2.516c-0.58,0.419-1.624,0.838-3.017,0.838h-4.177
		l0.349-2.62l0.117-1.048l2.785-19.285h3.365c2.205,0,3.597,0.419,4.292,1.363l7.541,9.957L95.586,1.784
		c0.929-0.838,2.436-1.257,4.524-1.257h3.48l-2.668,19.285v0.315c-0.115,0.944-0.695,1.886-1.624,2.516
		c-0.58,0.419-1.507,0.944-2.9,0.944h-3.946l1.973-13.415l-8.353,8.803c-0.232,0.21-1.044,0.944-1.973,0.944h-0.117
		c-0.929,0-1.507-0.734-1.856-1.048l-5.568-8.705L75.281,19.808z"/>
</g>
</svg>
