<?xml version="1.0" encoding="utf-8"?>
<!-- Generator: Adobe Illustrator 27.7.0, SVG Export Plug-In . SVG Version: 6.00 Build 0)  -->
<!DOCTYPE svg PUBLIC "-//W3C//DTD SVG 1.1//EN" "http://www.w3.org/Graphics/SVG/1.1/DTD/svg11.dtd" [
	<!ENTITY ns_extend "http://ns.adobe.com/Extensibility/1.0/">
	<!ENTITY ns_ai "http://ns.adobe.com/AdobeIllustrator/10.0/">
	<!ENTITY ns_graphs "http://ns.adobe.com/Graphs/1.0/">
	<!ENTITY ns_vars "http://ns.adobe.com/Variables/1.0/">
	<!ENTITY ns_imrep "http://ns.adobe.com/ImageReplacement/1.0/">
	<!ENTITY ns_sfw "http://ns.adobe.com/SaveForWeb/1.0/">
	<!ENTITY ns_custom "http://ns.adobe.com/GenericCustomNamespace/1.0/">
	<!ENTITY ns_adobe_xpath "http://ns.adobe.com/XPath/1.0/">
]>
<svg version="1.1" id="Layer_1" xmlns:x="&ns_extend;" xmlns:i="&ns_ai;" xmlns:graph="&ns_graphs;"
	 xmlns="http://www.w3.org/2000/svg" xmlns:xlink="http://www.w3.org/1999/xlink" x="0px" y="0px" width="111.904px" height="24px"
	 viewBox="0 0 111.904 24" style="enable-background:new 0 0 111.904 24;" xml:space="preserve">
<style type="text/css">
	.st0{fill:#1974BB;}
</style>
<metadata>
	<sfw  xmlns="&ns_sfw;">
		<slices></slices>
		<sliceSourceBounds  bottomLeftOrigin="true" height="24" width="111.904" x="-1.438" y="-0.309"></sliceSourceBounds>
	</sfw>
</metadata>
<g>
	<path class="st0" d="M25.29,11.893c0-2.097,0.519-3.742,1.644-5.014c1.125-1.272,2.543-1.871,4.335-1.871
		c0.599,0,1.125,0.079,1.565,0.226c0.519,0.147,0.899,0.3,1.193,0.519c0.3,0.226,0.519,0.453,0.746,0.599
		C35,6.578,35.146,6.725,35.226,6.872l0.079,0.226h0.079c0-0.226-0.079-0.519-0.079-0.899V0.073h2.543v18.399h-2.397V17.2v-0.899
		h-0.079c0,0.079-0.079,0.147-0.147,0.226c-0.079,0.079-0.226,0.3-0.453,0.599c-0.226,0.3-0.519,0.519-0.825,0.746
		c-0.306,0.226-0.746,0.453-1.272,0.599c-0.519,0.147-1.125,0.226-1.724,0.226c-1.792,0-3.217-0.599-4.268-1.871
		C25.809,15.629,25.29,13.911,25.29,11.893z M27.833,11.893c0,1.418,0.373,2.543,1.046,3.443c0.673,0.899,1.565,1.272,2.69,1.272
		c1.046,0,2.018-0.374,2.69-1.193c0.746-0.825,1.125-1.944,1.125-3.589c0-1.272-0.3-2.397-0.972-3.29
		c-0.672-0.899-1.565-1.418-2.77-1.418c-1.046,0-2.018,0.453-2.69,1.272C28.206,9.275,27.833,10.395,27.833,11.893z"/>
	<path class="st0" d="M39.953,2.611V0h2.543v2.617h-2.543V2.611z M40.026,18.472V5.235h2.543v13.238h-2.543V18.472z"/>
	<path class="st0" d="M46.385,20.863c1.125,0.599,2.318,0.899,3.589,0.899c1.272,0,2.244-0.3,2.996-0.899
		c0.746-0.599,1.125-1.565,1.125-2.843v-0.972v-0.825h-0.079c-0.825,1.352-2.097,2.097-3.889,2.097s-3.217-0.672-4.268-1.945
		c-1.046-1.272-1.565-2.917-1.565-4.861s0.519-3.515,1.565-4.788c1.046-1.193,2.471-1.871,4.268-1.871
		c0.599,0,1.125,0.079,1.645,0.226c0.519,0.147,0.899,0.3,1.193,0.519c0.3,0.226,0.519,0.373,0.746,0.599
		c0.226,0.226,0.373,0.373,0.453,0.519l0.147,0.147h0.079c0-0.147,0-0.226,0-0.453V5.222h2.397v12.639
		c0,1.046-0.226,1.944-0.519,2.77c-0.373,0.825-0.899,1.418-1.499,1.871c-0.746,0.519-1.499,0.899-2.244,1.125
		C51.779,23.854,50.96,24,50.055,24c-1.565,0-3.064-0.373-4.488-1.125L46.385,20.863z M50.721,16.081
		c1.046,0,1.871-0.373,2.543-1.046c0.672-0.746,0.972-1.871,0.972-3.443c0-2.996-1.272-4.414-3.742-4.414
		c-1.125,0-2.018,0.373-2.617,1.193c-0.599,0.746-0.972,1.871-0.972,3.217c0,1.418,0.373,2.543,1.046,3.37
		C48.623,15.709,49.595,16.081,50.721,16.081z"/>
	<path class="st0" d="M58.797,2.611V0h2.543v2.617h-2.543V2.611z M58.871,18.472V5.235h2.543v13.238h-2.543V18.472z"/>
	<path class="st0" d="M63.213,11.893c0-1.945,0.672-3.589,2.018-4.935c1.352-1.352,2.996-2.018,5.088-2.018
		c0.972,0,1.871,0.147,2.69,0.453c0.825,0.3,1.418,0.672,1.791,0.972l0.519,0.453l-1.193,1.792C74.047,8.53,73.9,8.384,73.674,8.157
		c-0.226-0.147-0.599-0.373-1.272-0.672c-0.598-0.3-1.271-0.453-1.944-0.453c-1.352,0-2.397,0.453-3.29,1.352
		c-0.899,0.899-1.272,2.018-1.272,3.37s0.453,2.471,1.351,3.37c0.899,0.899,2.018,1.352,3.37,1.352c0.746,0,1.418-0.147,2.097-0.453
		c0.672-0.3,1.193-0.599,1.499-0.899l0.453-0.453l1.046,1.871c-0.079,0.079-0.147,0.147-0.226,0.226
		c-0.079,0.079-0.3,0.3-0.672,0.519c-0.3,0.227-0.672,0.453-1.046,0.672c-0.373,0.147-0.899,0.373-1.499,0.519
		c-0.599,0.147-1.193,0.226-1.871,0.226c-2.097,0-3.742-0.672-5.088-1.945C63.885,15.482,63.213,13.838,63.213,11.893z"/>
	<path class="st0" d="M75.852,11.893c0-2.097,0.599-3.742,1.871-5.014c1.272-1.272,2.843-1.871,4.708-1.871
		c1.791,0,3.217,0.599,4.189,1.724c0.972,1.193,1.499,2.617,1.499,4.414l-0.079,1.125h-9.643c0.079,1.418,0.519,2.471,1.418,3.217
		c0.899,0.746,1.945,1.125,3.143,1.125c0.672,0,1.352-0.147,2.018-0.373c0.672-0.226,1.125-0.519,1.418-0.746l0.453-0.373
		l1.046,1.871c-0.147,0.147-0.373,0.3-0.599,0.519c-0.3,0.226-0.899,0.519-1.724,0.825c-0.899,0.373-1.792,0.519-2.77,0.519
		c-2.018,0-3.742-0.672-5.014-1.945C76.525,15.482,75.852,13.838,75.852,11.893z M78.549,10.321h7.032
		c0-1.125-0.373-1.944-0.972-2.471c-0.599-0.599-1.351-0.899-2.244-0.899c-0.972,0-1.871,0.3-2.543,0.899
		C79.141,8.45,78.769,9.275,78.549,10.321z"/>
	<path class="st0" d="M89.989,18.472V5.235h2.471v2.318l-0.079,0.972h0.079c0.3-0.972,0.825-1.871,1.565-2.471
		c0.746-0.672,1.565-0.972,2.617-0.972l0.672,0.079v2.471c-0.226-0.079-0.453-0.079-0.746-0.079c-0.825,0-1.565,0.3-2.244,0.825
		c-0.672,0.519-1.193,1.352-1.499,2.244c-0.226,0.672-0.3,1.499-0.3,2.397v5.386L89.989,18.472z"/>
	<path class="st0" d="M100.531,13.611V7.478h-1.724V5.46h1.792V1.645h2.471V5.46h3.217v2.018h-3.217v5.833
		c0,0.519,0.08,0.972,0.227,1.352c0.146,0.373,0.299,0.672,0.519,0.899c0.226,0.227,0.453,0.373,0.672,0.519
		c0.3,0.147,0.52,0.226,0.746,0.226c0.226,0,0.453,0.079,0.672,0.079l0.599-0.079v2.244c-0.226,0-0.519,0.079-0.899,0.079
		c-0.452,0-0.825,0-1.192-0.079c-0.367-0.079-0.826-0.147-1.272-0.373c-0.52-0.226-0.899-0.453-1.273-0.825
		c-0.373-0.373-0.672-0.825-0.899-1.418C100.689,15.182,100.531,14.504,100.531,13.611z"/>
	<path class="st0" d="M109.287,0c-1.418,0-2.617,1.125-2.617,2.617c0,1.418,1.125,2.617,2.617,2.617
		c1.418,0,2.616-1.193,2.616-2.617S110.712,0,109.287,0z M109.287,4.708c-1.126,0-2.098-0.899-2.098-2.097
		c0-1.125,0.899-2.097,2.098-2.097c1.125,0,2.097,0.899,2.097,2.097C111.378,3.736,110.485,4.708,109.287,4.708z"/>
	<path class="st0" d="M23.345,13.758c-0.373-4.335-3.37-7.252-5.687-10.395c0.972-1.418,3.143-0.972,4.708-0.672
		c-2.018-1.418-4.414-2.244-6.959-2.471c-4.86-0.079-8.743,2.77-12.338,5.913c-2.17-0.672-0.672-2.996-0.672-4.64
		C0.531,4.036-0.068,6.88,0.006,9.796c0.079,2.617,1.193,5.161,2.69,7.478c1.046,1.193,2.097,2.397,3.143,3.589
		c-1.046,1.724-3.143,0.972-4.708,0.672c2.543,1.871,5.388,2.471,8.303,2.397c2.617-0.079,5.161-1.193,7.405-2.69
		c1.193-1.046,2.397-2.097,3.589-3.143c1.046,1.193,1.272,3.217,0.672,4.708C22.892,20.27,23.572,17.127,23.345,13.758z
		 M19.909,13.911c-0.899,1.125-2.024,2.471-2.024,2.471c-1.125,1.272-2.097,1.871-2.543,2.244c-1.499,1.125-3.37,1.792-5.235,1.871
		c0,0-0.226,0-0.453,0l-0.079-0.079c-0.899-0.899-2.097-2.097-2.097-2.097c-0.672-0.825-1.272-1.193-2.171-2.471
		c-1.125-1.565-1.792-3.37-1.871-5.234c0,0,0-0.3,0-0.599v-0.08l2.097-1.871c2.471-2.171,5.161-4.115,8.524-4.115h0.147l1.644,2.171
		c1.565,2.171,3.663,4.268,3.963,7.252C19.83,13.385,19.909,13.838,19.909,13.911z"/>
	<path class="st0" d="M108.388,4.036V1.193h0.899c0.226,0,0.452,0,0.519,0.079c0.147,0.079,0.3,0.147,0.373,0.3
		c0.074,0.153,0.147,0.3,0.147,0.519c0,0.147-0.079,0.373-0.147,0.453c-0.079,0.147-0.226,0.226-0.373,0.3
		c0,0,0.079,0.079,0.079,0.147l0.599,1.125h-0.453l-0.598-1.125h-0.599v1.125h-0.453V4.036H108.388z M108.841,2.543h0.598
		c0.147,0,0.3-0.079,0.374-0.147c0.079-0.079,0.147-0.226,0.147-0.373c0-0.226-0.08-0.373-0.227-0.453
		c-0.079-0.079-0.226-0.079-0.373-0.079h-0.453L108.841,2.543z"/>
</g>
</svg>
