<?xml version="1.0" encoding="utf-8"?>
<!-- Generator: Adobe Illustrator 27.7.0, SVG Export Plug-In . SVG Version: 6.00 Build 0)  -->
<!DOCTYPE svg PUBLIC "-//W3C//DTD SVG 1.1//EN" "http://www.w3.org/Graphics/SVG/1.1/DTD/svg11.dtd" [
	<!ENTITY ns_extend "http://ns.adobe.com/Extensibility/1.0/">
	<!ENTITY ns_ai "http://ns.adobe.com/AdobeIllustrator/10.0/">
	<!ENTITY ns_graphs "http://ns.adobe.com/Graphs/1.0/">
	<!ENTITY ns_vars "http://ns.adobe.com/Variables/1.0/">
	<!ENTITY ns_imrep "http://ns.adobe.com/ImageReplacement/1.0/">
	<!ENTITY ns_sfw "http://ns.adobe.com/SaveForWeb/1.0/">
	<!ENTITY ns_custom "http://ns.adobe.com/GenericCustomNamespace/1.0/">
	<!ENTITY ns_adobe_xpath "http://ns.adobe.com/XPath/1.0/">
]>
<svg version="1.1" id="Layer_1" xmlns:x="&ns_extend;" xmlns:i="&ns_ai;" xmlns:graph="&ns_graphs;"
	 xmlns="http://www.w3.org/2000/svg" xmlns:xlink="http://www.w3.org/1999/xlink" x="0px" y="0px" width="98.556px" height="22px"
	 viewBox="0 0 98.556 22" style="enable-background:new 0 0 98.556 22;" xml:space="preserve">
<style type="text/css">
	.st0{fill:#794E2E;}
	.st1{fill:#E85626;}
	.st2{fill:#E95525;}
</style>
<metadata>
	<sfw  xmlns="&ns_sfw;">
		<slices></slices>
		<sliceSourceBounds  bottomLeftOrigin="true" height="22" width="98.556" x="5.233" y="1.168"></sliceSourceBounds>
	</sfw>
</metadata>
<g>
	<path class="st0" d="M9.748,6.274c0-2.316-1.777-2.1-1.777-2.1H3.555v4.308h4.416C8.025,8.428,9.748,8.698,9.748,6.274z M0,18.015
		V0.674h8.509c0,0,4.793-0.269,4.793,5.494c0,0,0.215,4.685-3.5,4.685l3.608,7.162H9.156l-3.447-6.625H3.608v6.625
		C3.608,18.015,0,18.015,0,18.015z"/>
	<path class="st0" d="M17.396,13.437c0.539,2.316,2.424,1.4,2.424,1.4c1.777-1.185,1.293-2.962,1.293-2.962
		C16.857,10.852,17.396,13.437,17.396,13.437z M16.156,8.375V4.766c0,0,1.885-0.646,3.285-0.592c0,0,4.631-0.485,5.117,3.555v9.533
		H21.65v-0.539c0,0-1.4,1.131-3.016,1.185c0,0-4.847,0.592-4.901-4.363c0,0-0.754-4.47,5.278-4.47c0,0,0.969-0.108,2.531,0.539
		c0,0-0.215-2.424-2.1-2.477C19.119,7.136,18.15,7.028,16.156,8.375z"/>
	<path class="st0" d="M41.9,17.207h-3.393L38.453,4.658h3.393L41.9,17.207z"/>
	<path class="st0" d="M31.828,14.891c1.723,0,2.424-2.262,2.424-3.608s-0.862-3.555-2.478-3.555c-1.723,0-1.885,1.131-1.885,1.131
		v4.901C30.859,14.783,31.828,14.891,31.828,14.891z M26.497,22L26.443,4.658h3.5v0.646c0,0,0.969-1.185,2.908-1.077
		c0,0,4.363-0.323,4.793,6.947c0,0,0.323,7.378-5.278,6.84c0,0-0.969-0.054-2.369-0.916v3.231L26.497,22z"/>
	<path class="st0" d="M49.062,7.19c-1.67,0-2.424,2.316-2.424,3.608c0,1.346,0.808,3.555,2.477,3.555
		c1.67,0,1.885-1.131,1.885-1.131V8.321C50.085,7.297,49.062,7.19,49.062,7.19z M54.394,0.081l0.054,17.342h-3.5V16.83
		c0,0-0.916,1.185-2.908,1.077c0,0-4.363,0.323-4.793-6.947c0,0-0.323-7.378,5.278-6.84c0,0,1.023,0.054,2.369,0.916V1.805
		L54.394,0.081z"/>
	<path class="st1" d="M58.325,12.468c0,0,2.746,2.531,5.385,1.508c0.377-0.162,0.539-0.215,1.078-0.7c0,0,1.454-1.885-2.316-2.693
		c0,0-5.763-0.862-6.248-4.363c0,0-1.023-4.793,4.201-5.816c0,0,3.716-1.67,7.916,2.477l-2.477,2.316c0,0-3.285-2.801-5.439-0.808
		c0,0-1.023,1.455,1.023,2.262c0,0,6.248,0.592,6.894,4.201c0,0,1.454,4.201-2.908,6.248c0,0-3.77,1.885-7.055-0.215
		c-0.916-0.646-2.693-2.262-2.693-2.262L58.325,12.468z"/>
	<path class="st1" d="M71.681,12.468c0,0,4.093,3.231,6.463,0.754c0,0,1.454-1.885-2.316-2.693c0,0-5.494-0.916-6.248-4.363
		c0,0-1.023-4.793,4.147-5.816c0,0,3.77-1.723,7.971,2.477l-2.477,2.316c0,0-3.5-3.07-5.439-0.808c0,0-1.023,1.455,1.023,2.262
		c0,0,5.924,0.7,6.84,4.201c0,0,1.508,4.201-2.908,6.248c0,0-3.608,1.777-7.055-0.162c-0.916-0.646-2.746-2.316-2.746-2.316
		L71.681,12.468z"/>
	<path class="st1" d="M91.932,13.545h-3.77L88.108,0.404h-3.609l0.054,17.287h9.91L91.932,13.545z"/>
	<path class="st0" d="M40.177,3.528c0.952,0,1.723-0.772,1.723-1.723c0-0.952-0.772-1.723-1.723-1.723
		c-0.952,0-1.723,0.772-1.723,1.723C38.453,2.756,39.225,3.528,40.177,3.528z"/>
	<path class="st2" d="M96.94,14.406c-0.915,0-1.615,0.701-1.615,1.615c0,0.916,0.701,1.615,1.615,1.615
		c0.916,0,1.616-0.7,1.616-1.615C98.556,15.107,97.856,14.406,96.94,14.406z M97.371,15.645c0,0.269-0.215,0.269-0.485,0.269h-0.215
		v-0.539h0.377C97.318,15.375,97.371,15.537,97.371,15.645z M97.264,16.184c0.269-0.054,0.431-0.269,0.431-0.539
		c0-0.377-0.216-0.539-0.646-0.539h-0.754v1.939h0.323v-0.862h0.269l0.485,0.808h0.377c-0.215,0.215-0.539,0.323-0.862,0.323
		c-0.754,0-1.293-0.539-1.293-1.293c0-0.754,0.539-1.293,1.293-1.293c0.754,0,1.293,0.539,1.293,1.293
		c0,0.377-0.162,0.7-0.377,0.969L97.264,16.184z"/>
</g>
</svg>
