<?xml version="1.0" encoding="utf-8"?>
<!-- Generator: Adobe Illustrator 27.7.0, SVG Export Plug-In . SVG Version: 6.00 Build 0)  -->
<!DOCTYPE svg PUBLIC "-//W3C//DTD SVG 1.1//EN" "http://www.w3.org/Graphics/SVG/1.1/DTD/svg11.dtd" [
	<!ENTITY ns_extend "http://ns.adobe.com/Extensibility/1.0/">
	<!ENTITY ns_ai "http://ns.adobe.com/AdobeIllustrator/10.0/">
	<!ENTITY ns_graphs "http://ns.adobe.com/Graphs/1.0/">
	<!ENTITY ns_vars "http://ns.adobe.com/Variables/1.0/">
	<!ENTITY ns_imrep "http://ns.adobe.com/ImageReplacement/1.0/">
	<!ENTITY ns_sfw "http://ns.adobe.com/SaveForWeb/1.0/">
	<!ENTITY ns_custom "http://ns.adobe.com/GenericCustomNamespace/1.0/">
	<!ENTITY ns_adobe_xpath "http://ns.adobe.com/XPath/1.0/">
]>
<svg version="1.1" id="Layer_1" xmlns:x="&ns_extend;" xmlns:i="&ns_ai;" xmlns:graph="&ns_graphs;"
	 xmlns="http://www.w3.org/2000/svg" xmlns:xlink="http://www.w3.org/1999/xlink" x="0px" y="0px" width="132.432px" height="22px"
	 viewBox="0 0 132.432 22" style="enable-background:new 0 0 132.432 22;" xml:space="preserve">
<style type="text/css">
	.st0{fill:#096CB2;}
	.st1{fill:#2D2E2F;}
	.st2{fill:#F37122;}
</style>
<metadata>
	<sfw  xmlns="&ns_sfw;">
		<slices></slices>
		<sliceSourceBounds  bottomLeftOrigin="true" height="22" width="132.432" x="-11.705" y="-1.944"></sliceSourceBounds>
	</sfw>
</metadata>
<g>
	<path class="st0" d="M10.348,5.5c2.244-1.593,4.632-2.172,6.658-1.882V0H0v17.295h5.789c-0.073-0.145-0.145-0.217-0.217-0.362
		C3.981,13.532,6.151,8.395,10.348,5.5z"/>
	<path class="st1" d="M42.841,4.703c-0.434-1.955-2.099-2.533-3.908-2.533c-4.052,0-5.5,3.546-5.427,6.658
		c0.145,4.27,1.447,6.585,6.151,6.658c1.158,0,2.244-0.145,3.257-0.507v-4.632h-3.763V8.395h6.007v8.249
		c-1.737,0.507-3.619,0.94-5.5,0.94c-2.315,0-4.197-0.289-6.007-1.882c-1.809-1.593-2.46-4.414-2.46-6.73
		c0-1.737,0.579-3.619,1.375-5.138c1.447-2.533,3.835-3.546,6.658-3.546c2.823,0,5.862,1.302,6.007,4.487L42.841,4.703z"/>
	<path class="st1" d="M49.934,11.868c-0.145,2.026,0.651,4.125,2.895,4.125c1.664,0,2.533-0.651,2.75-2.315h2.315
		c-0.362,2.606-2.315,3.908-5.065,3.908c-3.69,0-5.138-2.606-5.138-6.007s1.664-6.223,5.356-6.223
		c3.401,0.073,5.065,2.244,5.065,5.427v1.085H49.934z M55.723,10.348c0.073-1.953-0.796-3.401-2.895-3.401
		c-1.809,0-2.895,1.52-2.895,3.401H55.723z"/>
	<path class="st1" d="M70.993,11.434c0,3.619-1.955,6.151-5.717,6.151c-3.763,0-5.717-2.533-5.717-6.151s1.955-6.079,5.717-6.079
		C69.038,5.283,70.993,7.816,70.993,11.434z M65.276,15.993c2.606,0,3.401-2.099,3.401-4.559c0-2.461-0.869-4.487-3.401-4.487
		c-2.606,0-3.401,2.099-3.401,4.487C61.875,13.894,62.67,15.993,65.276,15.993z"/>
	<path class="st1" d="M73.381,3.835h-5.065V0.579h14.836v3.257h-5.21v13.388h-4.559V3.835H73.381z"/>
	<path class="st1" d="M85.538,7.816c0.507-1.882,1.954-2.533,3.908-2.533v3.69c-0.289,0-0.651,0-0.94,0
		c-2.244,0-3.039,1.375-2.968,3.619v4.632h-4.341V8.611c0-1.013,0-1.737-0.145-2.968h4.414L85.538,7.816z"/>
	<path class="st1" d="M99.214,15.92c-1.013,1.158-2.099,1.593-3.619,1.593c-2.461,0-4.27-1.593-4.27-4.197V5.645h4.343v6.802
		c0.073,1.158,0.289,2.315,1.664,2.315c2.171,0,1.882-2.388,1.882-2.533V5.572h4.343v8.611c0,1.013,0,1.737,0.145,2.966h-4.414
		L99.214,15.92z"/>
	<path class="st1" d="M112.603,9.191c0-0.362-0.073-0.724-0.289-0.94c-0.217-0.289-0.579-0.435-1.158-0.435
		c-0.651,0-1.013,0.362-1.013,1.013c0,0.869,1.737,0.796,4.487,1.664c1.375,0.434,2.315,1.302,2.315,3.184
		c0,3.039-2.822,3.835-5.5,3.835c-2.822,0-5.572-0.579-5.5-4.125h4.125c-0.073,0.362,0.073,0.724,0.289,1.013
		c0.217,0.289,0.579,0.507,1.013,0.507c0.869,0,1.447-0.289,1.447-1.086c0-2.026-6.802-0.796-6.802-4.994
		c0-2.822,3.039-3.619,5.283-3.619c2.75,0,5.21,0.724,5.427,3.908h-4.125v0.075H112.603z"/>
	<path class="st1" d="M120.274,5.645V3.908l4.341-1.664v3.401h2.533v2.75h-2.533v4.559c0,0.289-0.145,1.809,0.797,1.809
		c0.578,0,1.158,0,1.664-0.073v2.606c-1.013,0.217-1.664,0.217-2.316,0.217c-2.966,0-4.703-0.434-4.486-3.981V8.394h-2.244V5.645
		H120.274z"/>
	<path class="st1" d="M132.432,6.802c0,0.434-0.145,0.796-0.507,1.086c-0.29,0.289-0.652,0.507-1.086,0.507
		s-0.796-0.145-1.086-0.507c-0.289-0.289-0.434-0.651-0.434-1.086c0-0.435,0.145-0.796,0.434-1.158
		c0.29-0.289,0.652-0.507,1.086-0.507s0.796,0.145,1.086,0.507C132.288,6.007,132.432,6.369,132.432,6.802z M132.07,6.802
		c0-0.362-0.145-0.651-0.362-0.869c-0.217-0.289-0.507-0.362-0.869-0.362s-0.651,0.145-0.869,0.362s-0.362,0.507-0.362,0.869
		s0.145,0.651,0.362,0.869c0.217,0.289,0.507,0.362,0.869,0.362s0.579-0.145,0.869-0.362C131.926,7.454,132.07,7.164,132.07,6.802z
		 M131.057,7.671V7.382c0-0.145,0-0.217-0.073-0.289c-0.072-0.073-0.072-0.145-0.217-0.145h-0.072v0.724h-0.217h-0.217V5.935h0.652
		c0.145,0,0.289,0,0.361,0.073c0.073,0.072,0.146,0.145,0.146,0.289v0.072v0.073c0,0.073,0,0.145-0.073,0.217
		c-0.073,0.073-0.073,0.073-0.217,0.145c0.145,0.073,0.217,0.145,0.217,0.217c0.073,0.073,0.073,0.217,0.073,0.289v0.289h-0.362
		C131.057,7.599,131.057,7.671,131.057,7.671z M131.057,6.513c0-0.145,0-0.145-0.073-0.217c0-0.073-0.072-0.073-0.145-0.073h-0.145
		h-0.145V6.73h0.216c0.073,0,0.073,0,0.146-0.073C131.057,6.585,131.057,6.585,131.057,6.513z"/>
	<path class="st2" d="M16.935,5.645c-4.487,0-8.105,3.69-8.105,8.178c0,0.507,0.073,1.013,0.145,1.52
		c0.217,0.869,0.651,1.158,1.086,1.302c0.217,0.073,0.434,0.145,0.507,0.145c0.869,0.073,1.737-0.145,2.606-0.651
		c1.158-0.724,2.026-1.882,2.461-3.257c-1.447,0.145-2.822,0.362-4.125,0.651v-2.533l9.118-0.651l-0.073,8.684l-2.75,0.217
		c0-0.073,0-0.145,0.073-0.289c0.073-0.724,0.217-1.447,0.289-2.244c0-0.435,0.072-0.869,0.072-1.302
		c-0.362,0.435-0.724,0.869-1.231,1.302c-0.435,0.362-0.869,0.724-1.375,1.013c-0.289,0.145-0.579,0.362-0.869,0.507
		c-0.651,0.289-1.231,0.507-1.882,0.724c-0.507,0.145-1.447,0.217-2.171,0.217C12.23,20.915,14.401,22,16.862,22
		c4.487,0,8.105-3.69,8.105-8.178C25.112,9.264,21.493,5.645,16.935,5.645z"/>
</g>
</svg>
