<?xml version="1.0" encoding="utf-8"?>
<!-- Generator: Adobe Illustrator 27.7.0, SVG Export Plug-In . SVG Version: 6.00 Build 0)  -->
<!DOCTYPE svg PUBLIC "-//W3C//DTD SVG 1.1//EN" "http://www.w3.org/Graphics/SVG/1.1/DTD/svg11.dtd" [
	<!ENTITY ns_extend "http://ns.adobe.com/Extensibility/1.0/">
	<!ENTITY ns_ai "http://ns.adobe.com/AdobeIllustrator/10.0/">
	<!ENTITY ns_graphs "http://ns.adobe.com/Graphs/1.0/">
	<!ENTITY ns_vars "http://ns.adobe.com/Variables/1.0/">
	<!ENTITY ns_imrep "http://ns.adobe.com/ImageReplacement/1.0/">
	<!ENTITY ns_sfw "http://ns.adobe.com/SaveForWeb/1.0/">
	<!ENTITY ns_custom "http://ns.adobe.com/GenericCustomNamespace/1.0/">
	<!ENTITY ns_adobe_xpath "http://ns.adobe.com/XPath/1.0/">
]>
<svg version="1.1" id="Layer_1" xmlns:x="&ns_extend;" xmlns:i="&ns_ai;" xmlns:graph="&ns_graphs;"
	 xmlns="http://www.w3.org/2000/svg" xmlns:xlink="http://www.w3.org/1999/xlink" x="0px" y="0px" width="93.497px" height="24px"
	 viewBox="0 0 93.497 24" style="enable-background:new 0 0 93.497 24;" xml:space="preserve">
<style type="text/css">
	.st0{fill:none;}
	.st1{fill:#0650A0;}
	.st2{fill:#EB234E;}
</style>
<metadata>
	<sfw  xmlns="&ns_sfw;">
		<slices></slices>
		<sliceSourceBounds  bottomLeftOrigin="true" height="24" width="93.497" x="7.791" y="2"></sliceSourceBounds>
	</sfw>
</metadata>
<rect class="st0" width="93.447" height="24"/>
<g>
	<path class="st1" d="M42.536,9.498c-0.511-0.306-1.277-0.511-2.145-0.511c-2.043,0-3.268,0.97-3.779,1.379l0.715-4.391h-2.911
		l-2.043,11.949h2.911l1.123-6.485c0.715-0.562,1.634-1.021,2.604-1.021c0.511,0,0.919,0.153,1.226,0.409
		c0.511,0.46,0.46,1.174,0.306,1.991l-0.868,5.106h2.911l0.97-5.719C43.66,11.438,43.864,10.264,42.536,9.498z M50.247,8.936
		c-3.319,0-4.443,1.481-5.055,2.349l0.715,0.255c0.511-0.46,1.43-1.277,3.319-1.277c0.817,0,2.043,0.204,2.4,1.123
		c0.153,0.357,0.153,0.715,0.102,1.123h0.051l-0.46,2.706h-0.051l-0.153,0.97c-0.613,0.306-1.379,0.613-2.4,0.613
		c-1.481,0-1.889-0.817-1.736-1.532c0.204-1.123,1.43-1.634,2.706-1.634c0.409,0,0.715,0.051,1.072,0.102l0.204-1.226
		c-0.511-0.102-1.072-0.204-1.787-0.204c-2.604,0-4.902,1.123-5.209,3.115c-0.255,1.532,0.97,2.757,3.217,2.757
		c2.094,0,3.319-0.817,3.881-1.226l-0.153,0.97h2.809l0.868-5.209c0.153-0.817,0.306-1.94-0.664-2.809
		C53.26,9.396,52.136,8.936,50.247,8.936z M75.677,17.209c-0.204,0-1.072,0-1.481-0.766c-0.153-0.255-0.255-0.613-0.102-1.379
		l0.664-3.932h3.166l0.306-1.838h-3.166l0.409-2.349h-2.911l-0.409,2.349H69.09l-2.655,4.34l-0.46,0.817
		c-0.153-0.46-0.153-0.562-0.306-0.97l-1.532-4.187h-0.97L59.387,14.4c-0.102-0.409-0.102-0.511-0.204-0.919L58.06,9.294h-3.013
		l2.655,8.732h1.072l3.779-5.055l2.094,5.055h1.072l4.494-6.894h1.634l-0.715,4.289c-0.102,0.766-0.153,1.532,0.562,2.145
		c0.766,0.664,1.889,0.715,2.4,0.715c1.43,0,2.298-0.409,3.013-0.715l-0.255-0.562C76.494,17.106,76.136,17.209,75.677,17.209z
		 M81.702,12.511c-0.051,0.051-0.102,0.255-0.204,0.817c-0.051,0.204-0.051,0.409-0.051,0.511h7.762
		c0.153-0.97,0.408-2.553-0.97-3.779c-1.174-1.072-2.911-1.174-3.881-1.174c-3.932,0-6.383,2.042-6.843,4.596
		c-0.46,2.655,1.328,4.8,5.311,4.8c3.83,0,5.055-1.787,5.668-2.706l-0.664-0.255c-0.919,0.766-1.838,1.532-3.881,1.532
		c-2.962,0-3.37-1.787-3.421-2.655c0-0.051-0.051-0.204,0.051-0.817c0.102-0.613,0.255-0.817,0.255-0.868
		c0.46-0.97,1.072-2.196,3.166-2.196c2.196,0,2.196,1.43,2.196,2.196H81.702z M30.026,6.945h-2.911l-1.43,8.477
		c-0.102,0.766-0.153,1.532,0.562,2.145c0.766,0.664,1.889,0.715,2.4,0.715c1.43,0,2.298-0.409,3.013-0.715l-0.255-0.562
		c-0.357,0.102-0.664,0.153-1.123,0.153c-0.204,0-1.072,0-1.481-0.766c-0.153-0.255-0.255-0.613-0.102-1.379l0.664-3.932h2.298
		l0.306-1.838h-2.349L30.026,6.945z"/>
	<path class="st2" d="M11.081,1.072C4.953,1.072,0,6.026,0,12.153c0,6.128,4.953,11.081,11.081,11.081
		c6.128,0,11.081-4.953,11.081-11.081C22.213,6.026,17.209,1.072,11.081,1.072z M11.081,21.038c-4.902,0-8.885-3.983-8.885-8.885
		c0-4.902,3.983-8.885,8.885-8.885c4.902,0,8.885,3.983,8.885,8.885C20.017,17.055,16.034,21.038,11.081,21.038z M12.153,6.74H9.243
		l-1.43,8.477c-0.102,0.766-0.153,1.532,0.562,2.145c0.715,0.664,1.889,0.715,2.4,0.715c1.43,0,2.298-0.409,3.013-0.715
		l-0.255-0.511c-0.357,0.102-0.664,0.153-1.123,0.153c-0.204,0-1.072,0-1.481-0.766c-0.153-0.306-0.255-0.664-0.102-1.379
		l0.664-3.932h2.349l0.306-1.838h-2.4L12.153,6.74z"/>
	<path class="st1" d="M90.638,7.762h-0.715v1.889H89.31V7.762h-0.715v-0.46h2.043V7.762z M93.447,9.651h-0.613V8.068l-0.409,1.021
		h-0.408l-0.409-1.021v1.583h-0.561V7.302h0.715l0.511,1.174l0.51-1.174h0.715L93.447,9.651z"/>
</g>
</svg>
