<?xml version="1.0" encoding="utf-8"?>
<!-- Generator: Adobe Illustrator 27.1.1, SVG Export Plug-In . SVG Version: 6.00 Build 0)  -->
<!DOCTYPE svg PUBLIC "-//W3C//DTD SVG 1.1//EN" "http://www.w3.org/Graphics/SVG/1.1/DTD/svg11.dtd" [
	<!ENTITY ns_extend "http://ns.adobe.com/Extensibility/1.0/">
	<!ENTITY ns_ai "http://ns.adobe.com/AdobeIllustrator/10.0/">
	<!ENTITY ns_graphs "http://ns.adobe.com/Graphs/1.0/">
	<!ENTITY ns_vars "http://ns.adobe.com/Variables/1.0/">
	<!ENTITY ns_imrep "http://ns.adobe.com/ImageReplacement/1.0/">
	<!ENTITY ns_sfw "http://ns.adobe.com/SaveForWeb/1.0/">
	<!ENTITY ns_custom "http://ns.adobe.com/GenericCustomNamespace/1.0/">
	<!ENTITY ns_adobe_xpath "http://ns.adobe.com/XPath/1.0/">
]>
<svg version="1.1" id="Layer_1" xmlns:x="&ns_extend;" xmlns:i="&ns_ai;" xmlns:graph="&ns_graphs;"
	 xmlns="http://www.w3.org/2000/svg" xmlns:xlink="http://www.w3.org/1999/xlink" x="0px" y="0px" width="50px" height="50px"
	 viewBox="0 0 50 50" style="enable-background:new 0 0 50 50;" xml:space="preserve">
<style type="text/css">
	.st0{display:none;}
	.st1{display:inline;}
	.st2{fill:#1477BC;}
	.st3{display:inline;fill:#1477BC;}
	.st4{clip-path:url(#SVGID_00000119082593338209975530000012297666265956394170_);}
</style>
<metadata>
	<sfw  xmlns="&ns_sfw;">
		<slices></slices>
		<sliceSourceBounds  bottomLeftOrigin="true" height="50" width="50" x="0" y="0"></sliceSourceBounds>
	</sfw>
</metadata>
<g class="st0">
	<g class="st1">
		<g>
			<path class="st2" d="M17.13,3.21c-0.09,0.21-0.26,0.38-0.47,0.46c-0.33,0.12-0.64,0.25-0.95,0.39c-0.14,0.05-0.25,0.07-0.35,0.07
				c-0.34,0-0.65-0.19-0.78-0.5c-0.1-0.2-0.11-0.43-0.03-0.65c0.08-0.21,0.25-0.39,0.46-0.48c0.33-0.15,0.67-0.29,1-0.42
				c0.47-0.18,0.96,0.04,1.13,0.48C17.23,2.77,17.22,3,17.13,3.21z"/>
		</g>
		<g>
			<path class="st2" d="M47.76,15.57c-1.22-2.95-3.02-5.65-5.35-7.98C37.76,2.94,31.58,0.38,25,0.38c-2.44,0-4.82,0.35-7.08,1.04
				c-0.23,0.07-0.41,0.22-0.52,0.42c-0.1,0.2-0.12,0.43-0.05,0.65C17.42,2.71,17.57,2.9,17.77,3c0.2,0.11,0.43,0.13,0.64,0.06
				c2.14-0.64,4.35-0.97,6.6-0.97c5.04,0,9.8,1.6,13.8,4.63c-0.07,0.02-0.13,0.04-0.19,0.07c-1.26,0.43-2.4,1.58-2.96,2.99
				c-0.54,1.36-0.49,2.79,0.13,4.01c0.6,1.16,1.79,2.78,2.96,4.34c0.71,0.95,2.23,4.53,0.88,9.68c-0.48,1.84-1.31,4.67-2.4,8.21
				l-7.39-21.53h1.52c1.03,0,1.87-0.84,1.87-1.87c0-1.02-0.84-1.86-1.87-1.86h-13.2c-1.03,0-1.87,0.84-1.87,1.86
				c0,1.03,0.84,1.87,1.87,1.87h1.7l3.04,7.33l-4.21,12.57L11.88,14.5h1.53c1.03,0,1.86-0.84,1.86-1.86c0-1.03-0.83-1.87-1.86-1.87
				H7.06c1.83-2.31,4.06-4.23,6.65-5.71c0.2-0.11,0.34-0.29,0.4-0.51c0.06-0.22,0.04-0.45-0.07-0.65c-0.23-0.42-0.76-0.56-1.17-0.33
				c-3.72,2.12-6.85,5.18-9.04,8.86C1.57,16.24,0.38,20.58,0.38,25c0,6.58,2.56,12.76,7.21,17.41c4.65,4.65,10.83,7.21,17.41,7.21
				c3.4,0,6.69-0.68,9.77-2.01c0.43-0.19,0.62-0.69,0.44-1.13c-0.18-0.42-0.69-0.62-1.12-0.44c-0.22,0.09-0.43,0.18-0.65,0.26
				l-7.13-19.38c-0.13-0.33-0.44-0.55-0.8-0.55s-0.69,0.23-0.8,0.57l-7.13,19.73c-0.75-0.25-1.5-0.56-2.22-0.89L4.16,15.51
				c0.49-1.07,1.05-2.09,1.67-3.03h7.58c0.08,0,0.15,0.07,0.15,0.16c0,0.08-0.07,0.15-0.15,0.15h-2.72c-0.28,0-0.55,0.14-0.7,0.36
				c-0.16,0.23-0.2,0.51-0.12,0.77l8.02,23.41c0.12,0.35,0.44,0.58,0.81,0.58s0.7-0.23,0.82-0.58l5.11-15.27
				c0.07-0.18,0.06-0.4-0.01-0.6l-3.38-8.15c-0.13-0.32-0.45-0.53-0.79-0.53h-2.27c-0.08,0-0.15-0.07-0.15-0.16
				c0-0.08,0.07-0.15,0.15-0.15h13.18c0.09,0,0.16,0.07,0.16,0.15c0,0.09-0.07,0.16-0.16,0.16h-2.72c-0.28,0-0.55,0.14-0.7,0.36
				c-0.15,0.22-0.2,0.51-0.11,0.77l8.62,25.12c0.12,0.35,0.44,0.58,0.82,0.58s0.71-0.24,0.8-0.59c0.02-0.05,2.19-6.88,3.21-10.78
				c1.48-5.62-0.12-9.74-1.17-11.14c-1.19-1.58-2.29-3.09-2.81-4.09c-0.4-0.78-0.42-1.7-0.06-2.59c0.38-0.95,1.14-1.74,1.94-2.02
				c0.45-0.15,0.94-0.2,1.45-0.14c2.27,2.13,4.06,4.63,5.3,7.43c0.01,1.73-0.43,3.05-1.09,5.02c-0.07,0.23-0.14,0.46-0.22,0.69
				c-0.08,0.24-0.17,0.49-0.25,0.76c-0.83,2.55-4.66,13.93-6.72,20.05l-0.81,2.4c-0.18,0.11-0.37,0.22-0.56,0.33
				c-0.41,0.22-0.56,0.75-0.33,1.17c0.16,0.26,0.44,0.42,0.74,0.42c0.14,0,0.28-0.03,0.43-0.11c7.71-4.36,12.5-12.57,12.5-21.43
				C49.62,21.7,48.98,18.52,47.76,15.57z M19.23,47.17l6.29-17.46l6.32,17.16C27.79,48.13,23.42,48.25,19.23,47.17z M13.08,44.55
				C6.29,40.39,2.09,32.95,2.09,25c0-2.4,0.38-4.78,1.13-7.09L13.08,44.55z M39.2,42.97c2.01-5.97,5.97-17.69,6.79-20.29
				c0.13-0.4,0.26-0.78,0.38-1.14l0.09-0.27c0.24-0.73,0.48-1.44,0.68-2.15c0.51,1.93,0.77,3.91,0.77,5.88
				C47.91,31.96,44.66,38.64,39.2,42.97z"/>
		</g>
	</g>
</g>
<g class="st0">
	<path class="st3" d="M45,27.5v-1.667c0.46,0,0.833-0.373,0.833-0.833v-5c0-0.46-0.373-0.833-0.833-0.833h-4.5l-0.161-0.626
		c-0.368-1.432-0.941-2.803-1.7-4.072l-0.333-0.558l3.195-3.201c0.322-0.322,0.322-0.844,0-1.167L37.961,6
		c-0.327-0.312-0.84-0.312-1.167,0l-3.201,3.201l-0.557-0.333c-1.271-0.76-2.643-1.332-4.077-1.701l-0.626-0.163V2.5
		c0-0.46-0.373-0.833-0.833-0.833h-5c-0.46,0-0.833,0.373-0.833,0.833V7l-0.626,0.162c-1.432,0.368-2.803,0.94-4.072,1.699
		l-0.558,0.334L13.211,6c-0.327-0.314-0.844-0.314-1.171,0L8.5,9.539c-0.156,0.155-0.243,0.366-0.243,0.586
		c0,0.22,0.088,0.431,0.243,0.586l3.201,3.201l-0.333,0.558c-0.759,1.269-1.332,2.64-1.7,4.072l-0.163,0.626H5
		c-0.46,0-0.833,0.373-0.833,0.833v5c0,0.46,0.373,0.833,0.833,0.833V27.5c-1.381,0-2.5-1.119-2.5-2.5v-5c0-1.381,1.119-2.5,2.5-2.5
		h3.224c0.344-1.152,0.809-2.265,1.387-3.319l-2.292-2.292c-0.469-0.468-0.732-1.103-0.732-1.764s0.263-1.297,0.732-1.764
		l3.542-3.542c0.987-0.944,2.542-0.944,3.529,0l2.291,2.291C17.735,6.532,18.848,6.068,20,5.725V2.5C20,1.119,21.119,0,22.5,0h5
		C28.881,0,30,1.119,30,2.5v3.225c1.152,0.343,2.265,0.808,3.319,1.386l2.292-2.292c0.987-0.944,2.542-0.944,3.529,0l3.541,3.541
		c0.468,0.468,0.731,1.102,0.731,1.764s-0.263,1.297-0.731,1.764l-2.292,2.292c0.578,1.055,1.042,2.168,1.386,3.32H45
		c1.381,0,2.5,1.119,2.5,2.5v5C47.5,26.38,46.381,27.5,45,27.5z"/>
	<path class="st3" d="M36.667,22.5H35c0-5.523-4.477-10-10-10s-10,4.477-10,10h-1.667c0-6.443,5.223-11.667,11.667-11.667
		C31.443,10.833,36.667,16.057,36.667,22.5z"/>
	<path class="st3" d="M25,29.167c-2.761,0-5-2.239-5-5c0-2.761,2.239-5,5-5c2.762,0,5,2.239,5,5
		C29.997,26.927,27.76,29.164,25,29.167z M25,20.833c-1.841,0-3.333,1.493-3.333,3.333S23.159,27.5,25,27.5s3.333-1.493,3.333-3.333
		S26.841,20.833,25,20.833z"/>
	<path class="st3" d="M39.167,32.5c-2.761,0-5-2.239-5-5c0-2.761,2.239-5,5-5c2.761,0,5,2.239,5,5
		C44.164,30.26,41.927,32.497,39.167,32.5z M39.167,24.167c-1.841,0-3.333,1.493-3.333,3.333s1.493,3.333,3.333,3.333
		S42.5,29.341,42.5,27.5S41.007,24.167,39.167,24.167z"/>
	<path class="st3" d="M10.833,32.5c-2.761,0-5-2.239-5-5c0-2.761,2.239-5,5-5c2.762,0,5,2.239,5,5
		C15.83,30.26,13.594,32.497,10.833,32.5z M10.833,24.167c-1.841,0-3.333,1.493-3.333,3.333s1.493,3.333,3.333,3.333
		s3.333-1.493,3.333-3.333S12.674,24.167,10.833,24.167z"/>
	<path class="st3" d="M46.721,34.638c-1.242-0.854-2.714-1.309-4.221-1.305h-6.667c-0.405,0.004-0.81,0.04-1.209,0.11
		c-0.533-0.834-1.227-1.553-2.041-2.118c-0.122-0.092-0.25-0.176-0.384-0.25c-1.166-0.706-2.503-1.078-3.866-1.076h-6.667
		c-2.549-0.009-4.923,1.291-6.288,3.443c-0.4-0.069-0.806-0.106-1.212-0.11H7.5c-1.506-0.004-2.978,0.451-4.219,1.303
		C1.229,36.032,0.001,38.352,0,40.833v3.333c0.003,2.275,1.327,4.342,3.394,5.295C4.157,49.821,4.99,50.005,5.833,50h8.333v-1.667
		h-7.5v-9.167H5v9.083c-0.314-0.063-0.618-0.164-0.908-0.301c-1.476-0.681-2.423-2.156-2.426-3.782v-3.333
		c0.002-1.931,0.959-3.736,2.555-4.822C5.186,35.349,6.33,34.997,7.5,35h6.667c0.147,0,0.288,0.016,0.432,0.025
		c-0.282,0.795-0.428,1.632-0.432,2.475v8.333c0.003,2.3,1.867,4.164,4.167,4.167h2.5V36.667h-1.667v11.667h-0.833
		c-1.381,0-2.5-1.119-2.5-2.5V37.5c0-3.222,2.612-5.833,5.833-5.833h6.667c1.072,0.001,2.123,0.298,3.037,0.857
		c0.085,0.046,0.166,0.098,0.243,0.156c0.781,0.535,1.422,1.249,1.868,2.083c0.449,0.842,0.684,1.782,0.684,2.737v8.333
		c0,1.381-1.119,2.5-2.5,2.5h-0.833V36.667h-1.667V50h2.5c2.3-0.003,4.164-1.867,4.167-4.167V37.5
		c-0.004-0.843-0.149-1.679-0.431-2.475C35.546,35.016,35.688,35,35.833,35H42.5c1.171-0.003,2.315,0.35,3.281,1.013
		c1.595,1.087,2.55,2.89,2.553,4.82v3.333c-0.003,1.631-0.956,3.111-2.44,3.788c-0.285,0.135-0.585,0.234-0.894,0.295v-9.083h-1.667
		v9.167h-7.5V50h8.333c0.838,0.005,1.667-0.176,2.426-0.532c2.074-0.95,3.404-3.021,3.408-5.301v-3.333
		C49.999,38.353,48.771,36.034,46.721,34.638z"/>
	<path class="st3" d="M21.667,48.333h6.667V50h-6.667V48.333z"/>
</g>
<g>
	<g>
		<path class="st2" d="M14.299,9.996c4.915-2.217,8.548-5.079,10.505-8.276c0.03-0.049,0.073-0.073,0.127-0.073
			s0.097,0.025,0.127,0.073c1.446,2.362,3.768,4.516,6.901,6.4c3.065,1.843,6.751,3.338,10.956,4.442
			c0.101,0.026,0.173,0.112,0.18,0.213c0.056,0.82,0.084,1.683,0.084,2.565c0,3.27-0.859,6.938-2.554,10.902
			c-0.158,0.371,0.014,0.8,0.384,0.959c0.263,0.104,0.735,0.064,0.959-0.384c1.773-4.147,2.672-8.008,2.672-11.477
			c0-0.915-0.029-1.811-0.087-2.664c-0.049-0.728-0.558-1.341-1.266-1.527C35.151,9.012,28.962,5.297,26.304,0.957
			c-0.296-0.483-0.809-0.771-1.373-0.771c-0.564,0-1.077,0.288-1.373,0.771c-1.804,2.946-5.213,5.612-9.86,7.708
			C13.33,8.83,13.167,9.263,13.332,9.63C13.498,9.998,13.931,10.161,14.299,9.996L14.299,9.996z"/>
		<path class="st2" d="M32.379,29.942v-5.895c0-1.323-1.02-2.411-2.315-2.522v-1.119c0-2.83-2.302-5.133-5.133-5.133
			s-5.133,2.302-5.133,5.133v1.119c-1.295,0.11-2.315,1.199-2.315,2.522v5.895c0,1.396,1.136,2.532,2.532,2.532h9.832
			C31.243,32.474,32.379,31.338,32.379,29.942L32.379,29.942z M24.931,16.735c2.025,0,3.672,1.647,3.672,3.672v1.109h-7.344v-1.109
			C21.259,18.382,22.906,16.735,24.931,16.735z M18.944,29.942v-5.895c0-0.591,0.48-1.071,1.071-1.071h9.832
			c0.591,0,1.071,0.48,1.071,1.071v5.895c0,0.591-0.48,1.071-1.071,1.071h-9.832C19.424,31.014,18.944,30.533,18.944,29.942z"/>
		<path class="st2" d="M24.875,25.149c-0.739,0.047-1.343,0.643-1.4,1.381c-0.05,0.66,0.327,1.238,0.883,1.487v0.941
			c0,0.176,0.143,0.319,0.319,0.319h0.591c0.176,0,0.319-0.143,0.319-0.319v-0.941c0.523-0.235,0.887-0.76,0.887-1.37
			C26.475,25.785,25.749,25.093,24.875,25.149z"/>
		<path class="st2" d="M47.872,35.626c-0.842,0-1.572,0.492-1.916,1.203h-9.569c0.424-0.627,0.844-1.267,1.257-1.92h4.981
			c0.351,0,0.681-0.137,0.929-0.385l1.488-1.488h0.874c0.326,0.758,1.08,1.29,1.956,1.29c1.174,0,2.128-0.955,2.128-2.128
			c0-1.173-0.955-2.128-2.128-2.128c-0.957,0-1.769,0.635-2.035,1.506h-0.855c-0.351,0-0.681,0.137-0.929,0.385l-1.488,1.488h-4.021
			c0.669-1.116,1.312-2.262,1.913-3.431c0.185-0.359,0.044-0.799-0.315-0.984c-0.359-0.185-0.799-0.044-0.984,0.315
			C34.581,38.237,27.352,46.04,25.246,48.22c-0.083,0.086-0.195,0.134-0.315,0.134s-0.232-0.048-0.315-0.134
			c-1.764-1.825-6.304-6.732-10.363-12.861c-5.023-7.585-7.57-14.321-7.57-20.02c0-0.882,0.028-1.745,0.084-2.566
			c0.007-0.101,0.079-0.187,0.18-0.213c1.36-0.357,2.689-0.763,3.95-1.207c0.38-0.134,0.58-0.551,0.446-0.931
			c-0.134-0.38-0.551-0.58-0.931-0.446c-1.224,0.431-2.514,0.825-3.836,1.172c-0.708,0.186-1.217,0.8-1.266,1.527
			c-0.058,0.853-0.087,1.75-0.087,2.664c0,5.289,2.05,11.371,6.098,18.11H7.298L5.81,31.961c-0.248-0.248-0.578-0.385-0.929-0.385
			H4.163c-0.267-0.871-1.078-1.506-2.035-1.506C0.955,30.069,0,31.024,0,32.198c0,1.174,0.955,2.128,2.128,2.128
			c0.876,0,1.63-0.532,1.956-1.29H4.82l1.488,1.488c0.248,0.248,0.578,0.385,0.929,0.385h4.985c0.264,0.417,0.534,0.835,0.813,1.256
			c0.148,0.223,0.296,0.444,0.445,0.664H4.045c-0.345-0.712-1.074-1.203-1.916-1.203C0.955,35.626,0,36.581,0,37.754
			c0,1.173,0.955,2.128,2.128,2.128c0.989,0,1.822-0.678,2.06-1.593h10.305c0.477,0.672,0.954,1.325,1.429,1.956h-5.761
			c-0.299-0.815-1.082-1.398-1.999-1.398c-1.174,0-2.128,0.955-2.128,2.128s0.955,2.128,2.128,2.128c0.917,0,1.7-0.583,1.999-1.398
			h6.88c0.494,0.632,0.98,1.237,1.452,1.812h-3.158c-0.351,0-0.681,0.137-0.93,0.385l-1.488,1.488h-0.864
			c-0.299-0.815-1.082-1.398-1.999-1.398c-1.174,0-2.128,0.955-2.128,2.128c0,1.173,0.955,2.128,2.128,2.128
			c0.917,0,1.701-0.583,1.999-1.398h0.925c0.351,0,0.681-0.137,0.93-0.385l1.488-1.488h4.32c1.655,1.941,3.041,3.418,3.85,4.256
			c0.361,0.374,0.846,0.579,1.365,0.579s1.004-0.206,1.365-0.579c0.91-0.942,2.275-2.404,3.858-4.258
			c0.013,0.001,0.026,0.002,0.04,0.002h4.272l1.488,1.488c0.248,0.248,0.578,0.385,0.929,0.385h0.925
			c0.299,0.815,1.082,1.398,1.999,1.398c1.174,0,2.128-0.955,2.128-2.128c0-1.174-0.955-2.128-2.128-2.128
			c-0.917,0-1.701,0.583-1.999,1.398h-0.864l-1.488-1.488c-0.248-0.248-0.578-0.385-0.929-0.385h-3.15
			c0.473-0.576,0.959-1.181,1.453-1.812h6.9c0.299,0.815,1.082,1.398,1.999,1.398c1.174,0,2.128-0.955,2.128-2.128
			s-0.955-2.128-2.128-2.128c-0.917,0-1.7,0.583-1.999,1.398h-5.78c0.474-0.632,0.951-1.285,1.427-1.956h10.436
			c0.238,0.915,1.071,1.593,2.06,1.593c1.174,0,2.128-0.955,2.128-2.128C50,36.581,49.045,35.626,47.872,35.626L47.872,35.626z
			 M47.872,31.53c0.368,0,0.668,0.3,0.668,0.668c0,0.368-0.3,0.668-0.668,0.668c-0.368,0-0.668-0.3-0.668-0.668
			C47.204,31.829,47.504,31.53,47.872,31.53z M2.128,32.865c-0.368,0-0.668-0.3-0.668-0.668c0-0.368,0.3-0.668,0.668-0.668
			c0.368,0,0.668,0.3,0.668,0.668C2.796,32.566,2.496,32.865,2.128,32.865z M2.128,38.422c-0.368,0-0.668-0.3-0.668-0.668
			c0-0.368,0.3-0.668,0.668-0.668c0.368,0,0.668,0.3,0.668,0.668C2.796,38.122,2.496,38.422,2.128,38.422z M8.162,41.644
			c-0.368,0-0.668-0.3-0.668-0.668c0-0.368,0.3-0.668,0.668-0.668c0.368,0,0.668,0.3,0.668,0.668
			C8.83,41.345,8.53,41.644,8.162,41.644z M10.055,46.79c-0.368,0-0.668-0.3-0.668-0.668c0-0.368,0.3-0.668,0.668-0.668
			s0.668,0.3,0.668,0.668C10.723,46.49,10.423,46.79,10.055,46.79z M39.807,45.454c0.368,0,0.668,0.3,0.668,0.668
			c0,0.368-0.3,0.668-0.668,0.668s-0.668-0.3-0.668-0.668C39.139,45.754,39.439,45.454,39.807,45.454z M41.728,40.308
			c0.368,0,0.668,0.3,0.668,0.668c0,0.368-0.3,0.668-0.668,0.668c-0.368,0-0.668-0.3-0.668-0.668
			C41.06,40.608,41.36,40.308,41.728,40.308z M47.872,38.422c-0.368,0-0.668-0.3-0.668-0.668c0-0.368,0.3-0.668,0.668-0.668
			c0.368,0,0.668,0.3,0.668,0.668C48.539,38.122,48.24,38.422,47.872,38.422z"/>
		<ellipse class="st2" cx="24.882" cy="42.862" rx="1.398" ry="1.398"/>
		
			<ellipse transform="matrix(0.9871 -0.16 0.16 0.9871 -0.8533 4.0735)" class="st2" cx="24.866" cy="7.335" rx="1.398" ry="1.398"/>
		<path class="st2" d="M10.357,14.236c-0.772,0-1.398,0.626-1.398,1.398c0,0.772,0.626,1.398,1.398,1.398s1.398-0.626,1.398-1.398
			C11.755,14.862,11.129,14.236,10.357,14.236z"/>
		<path class="st2" d="M39.505,14.236c-0.772,0-1.398,0.626-1.398,1.398c0,0.772,0.626,1.398,1.398,1.398
			c0.772,0,1.398-0.626,1.398-1.398C40.903,14.862,40.277,14.236,39.505,14.236z"/>
	</g>
</g>
<g class="st0">
	<path class="st3" d="M17.698,19.347c0.429,0,0.776,0.347,0.776,0.776V25c0,0.429-0.347,0.776-0.776,0.776
		c-0.429,0-0.776-0.347-0.776-0.776v-4.877C16.922,19.694,17.269,19.347,17.698,19.347z M4.282,20.123V25
		c0,0.429,0.347,0.776,0.776,0.776S5.833,25.428,5.833,25v-4.877c0-0.429-0.347-0.776-0.776-0.776S4.282,19.694,4.282,20.123z
		 M0.947,25.775c-0.429,0-0.776-0.347-0.776-0.776v-5.261c0-3.872,2.931-7.095,6.693-7.559c-1.033-1.104-1.667-2.585-1.667-4.211
		c0-3.404,2.773-6.174,6.181-6.174c3.41,0,6.184,2.77,6.184,6.174c0,1.627-0.634,3.108-1.668,4.212
		c3.763,0.467,6.691,3.688,6.691,7.559V25c0,0.429-0.347,0.776-0.776,0.776c-0.429,0-0.776-0.347-0.776-0.776v-5.261
		c0-3.318-2.702-6.039-6.024-6.067h-1.268c-0.728,0.302-1.527,0.469-2.363,0.469s-1.633-0.168-2.362-0.469H7.743
		c-3.317,0.027-6.02,2.748-6.02,6.067V25C1.723,25.428,1.376,25.775,0.947,25.775L0.947,25.775z M6.749,7.968
		c0,2.549,2.076,4.622,4.629,4.622c2.554,0,4.632-2.074,4.632-4.622s-2.077-4.622-4.632-4.622C8.825,3.345,6.749,5.419,6.749,7.968z
		 M32.302,41.777c-0.429,0-0.776,0.347-0.776,0.776v4.877c0,0.429,0.347,0.776,0.776,0.776c0.429,0,0.776-0.347,0.776-0.776v-4.877
		C33.078,42.125,32.731,41.777,32.302,41.777z M44.94,41.777c-0.429,0-0.776,0.347-0.776,0.776v4.877
		c0,0.429,0.347,0.776,0.776,0.776c0.429,0,0.776-0.347,0.776-0.776v-4.877C45.716,42.125,45.368,41.777,44.94,41.777z
		 M49.829,42.168v5.261c0,0.429-0.347,0.776-0.776,0.776s-0.776-0.347-0.776-0.776v-5.261c0-3.318-2.703-6.039-6.027-6.067h-1.267
		c-0.728,0.302-1.526,0.469-2.362,0.469c-0.837,0-1.634-0.168-2.363-0.469h-1.274c-3.317,0.027-6.02,2.749-6.02,6.067v5.261
		c0,0.429-0.347,0.776-0.776,0.776s-0.776-0.347-0.776-0.776v-5.261c0-3.873,2.931-7.096,6.693-7.559
		c-1.034-1.104-1.668-2.585-1.668-4.211c0-3.404,2.774-6.174,6.184-6.174c3.408,0,6.181,2.77,6.181,6.174
		c0,1.627-0.634,3.108-1.668,4.212C46.9,35.076,49.829,38.298,49.829,42.168L49.829,42.168z M38.623,35.02
		c2.553,0,4.629-2.074,4.629-4.622s-2.076-4.622-4.629-4.622c-2.554,0-4.632,2.074-4.632,4.622S36.068,35.02,38.623,35.02z
		 M29.178,15.82h-1.883c-0.975,0-1.768-0.792-1.768-1.767V6.969c0-0.975,0.793-1.767,1.768-1.767h20.479
		c0.975,0,1.768,0.792,1.768,1.767v7.084c0,0.975-0.793,1.767-1.768,1.767H36.093l-5.654,4.538
		c-0.141,0.113-0.312,0.171-0.486,0.171c-0.114,0-0.229-0.025-0.336-0.077c-0.269-0.129-0.44-0.402-0.44-0.699L29.178,15.82
		L29.178,15.82z M29.954,14.268c0.429,0,0.776,0.347,0.776,0.776v3.091l4.605-3.696c0.138-0.111,0.309-0.171,0.486-0.171h11.954
		c0.117,0,0.216-0.099,0.216-0.215V6.969c0-0.116-0.099-0.215-0.216-0.215H27.296c-0.119,0-0.216,0.097-0.216,0.215v7.084
		c0,0.114,0.101,0.215,0.216,0.215H29.954z M35.508,11.286h9.449c0.429,0,0.776-0.347,0.776-0.776s-0.347-0.776-0.776-0.776h-9.449
		c-0.429,0-0.776,0.347-0.776,0.776S35.079,11.286,35.508,11.286z M32.205,11.286c0.429,0,0.776-0.347,0.776-0.776
		s-0.347-0.776-0.776-0.776h-2.092c-0.429,0-0.776,0.347-0.776,0.776s0.347,0.776,0.776,0.776H32.205z M24.472,31.238v7.084
		c0,0.975-0.793,1.767-1.768,1.767h-1.883v3.933c0,0.299-0.172,0.57-0.44,0.699c-0.107,0.051-0.221,0.077-0.336,0.077
		c-0.174,0-0.345-0.058-0.486-0.171l-5.654-4.538H2.225c-0.975,0-1.768-0.792-1.768-1.767v-7.084c0-0.975,0.793-1.767,1.768-1.767
		h20.479C23.68,29.471,24.472,30.263,24.472,31.238L24.472,31.238z M22.921,31.238c0-0.116-0.099-0.215-0.216-0.215H2.225
		c-0.117,0-0.216,0.099-0.216,0.215v7.084c0,0.116,0.099,0.215,0.216,0.215h11.954c0.177,0,0.348,0.06,0.486,0.171l4.605,3.696
		v-3.091c0-0.429,0.347-0.776,0.776-0.776h2.658c0.115,0,0.216-0.101,0.216-0.215V31.238z M14.492,34.004H5.044
		c-0.429,0-0.776,0.347-0.776,0.776s0.347,0.776,0.776,0.776h9.448c0.429,0,0.776-0.347,0.776-0.776S14.921,34.004,14.492,34.004z
		 M19.887,34.004h-2.092c-0.429,0-0.776,0.347-0.776,0.776s0.347,0.776,0.776,0.776h2.092c0.429,0,0.776-0.347,0.776-0.776
		S20.315,34.004,19.887,34.004z"/>
</g>
<g class="st0">
	<path class="st3" d="M43.35,24.387c0.144-0.739,0.218-1.491,0.219-2.244c0.003-4.309-2.28-8.296-5.998-10.475
		C31.79,8.279,24.357,10.219,20.968,16c-1.598-1.551-3.736-2.419-5.962-2.421c-4.734-0.004-8.575,3.83-8.579,8.564
		c0,0.754,0.101,1.504,0.299,2.231C2.864,24.935-0.001,28.245,0,32.148C0.001,36.485,3.517,40.001,7.855,40h4.196v-1.429H7.855
		c-3.369-0.082-6.104-2.752-6.265-6.118c-0.17-3.546,2.567-6.559,6.113-6.729c0.083-0.002,0.166-0.019,0.244-0.049
		c0.367-0.144,0.548-0.559,0.404-0.926c-1.148-2.914-0.262-6.235,2.184-8.19c3.079-2.461,7.569-1.96,10.03,1.119
		c0.068,0.084,0.153,0.151,0.25,0.197c0.357,0.169,0.782,0.017,0.951-0.34c2.207-4.638,7.398-7.054,12.368-5.756
		c5.719,1.493,9.144,7.34,7.651,13.059c-0.012,0.048-0.02,0.097-0.022,0.146c-0.019,0.394,0.286,0.729,0.68,0.747
		c3.426,0.162,6.121,2.986,6.121,6.417c0,3.548-2.876,6.425-6.424,6.425H14.284V40h27.857c3.874,0.003,7.171-2.82,7.765-6.649
		C50.571,29.065,47.636,25.052,43.35,24.387z"/>
	<path class="st3" d="M37.855,22.143h1.429c-0.005-4.337-3.52-7.852-7.857-7.857v1.429C34.975,15.718,37.851,18.594,37.855,22.143z"
		/>
	<path class="st3" d="M16.658,23.438l-2.747,8.083h1.08l0.839-2.543h2.867l0.863,2.543h1.115l-2.758-8.083H16.658z M16.046,28.163
		l0.792-2.338c0.156-0.491,0.288-0.983,0.408-1.463h0.024c0.12,0.468,0.24,0.947,0.419,1.476l0.792,2.326H16.046z"/>
	<path class="st3" d="M23.642,31.521l1.151-4.21c0.3-1.043,0.48-1.834,0.624-2.638h0.024c0.107,0.816,0.275,1.607,0.527,2.638
		l1.02,4.21h1.091l2.291-8.083h-1.067l-1.067,4.078c-0.252,1.008-0.479,1.907-0.647,2.795h-0.024
		c-0.119-0.852-0.336-1.812-0.563-2.771l-0.983-4.102h-1.092l-1.079,4.078c-0.276,1.044-0.527,2.003-0.66,2.807h-0.024
		c-0.144-0.779-0.36-1.787-0.6-2.795l-0.959-4.089H20.5l2.051,8.083H23.642z"/>
	<path class="st3" d="M33.11,30.778c-0.72,0-1.403-0.24-1.871-0.528l-0.264,0.876c0.432,0.287,1.283,0.516,2.063,0.516
		c1.907,0,2.831-1.08,2.831-2.327c0-1.188-0.696-1.847-2.063-2.374c-1.115-0.433-1.607-0.804-1.607-1.559
		c0-0.552,0.42-1.211,1.523-1.211c0.731,0,1.271,0.239,1.535,0.384l0.288-0.852c-0.359-0.204-0.96-0.396-1.787-0.396
		c-1.571,0-2.614,0.936-2.614,2.195c0,1.139,0.815,1.823,2.135,2.291c1.091,0.419,1.523,0.852,1.523,1.606
		C34.802,30.214,34.178,30.778,33.11,30.778z"/>
</g>
<g class="st0">
	<g id="g7137" transform="matrix(1.3333333,0,0,-1.3333333,0,682.66667)" class="st1">
		<g id="g7139">
			<g>
				<defs>
					<rect id="SVGID_1_" x="-5.806" y="468.695" width="49.111" height="49.111"/>
				</defs>
				<clipPath id="SVGID_00000099628215999387683830000001274157485795556514_">
					<use xlink:href="#SVGID_1_"  style="overflow:visible;"/>
				</clipPath>
				<g id="g7141" style="clip-path:url(#SVGID_00000099628215999387683830000001274157485795556514_);">
					<g id="g7147" transform="translate(353.8779,152.8848)">
						<g id="path7149">
							<path class="st2" d="M-325.43,332.408c-0.008,0-0.016,0-0.025,0h-2.632c-0.298,0-0.54,0.242-0.54,0.54
								c0,0.298,0.242,0.54,0.54,0.54h2.633c0.007,0,0.015,0,0.022,0c2.034,0,3.946,0.79,5.388,2.225
								c1.447,1.441,2.247,3.36,2.253,5.403c0.011,4.049-3.143,7.412-7.18,7.656c-0.243,0.015-0.447,0.191-0.496,0.43
								c-0.271,1.318-0.778,2.553-1.506,3.67c-0.163,0.25-0.092,0.584,0.157,0.747c0.25,0.163,0.584,0.092,0.747-0.157
								c0.729-1.118,1.256-2.343,1.571-3.646c4.411-0.473,7.799-4.219,7.787-8.702c-0.006-2.331-0.919-4.521-2.571-6.165
								C-320.927,333.309-323.11,332.408-325.43,332.408z"/>
						</g>
					</g>
					<g id="g7151" transform="translate(47.9531,169.2334)">
						<g id="path7153">
							<path class="st2" d="M-40.38,316.059c-1.47,0-2.886,0.44-4.095,1.271c-0.246,0.169-0.308,0.505-0.139,0.75
								c0.169,0.246,0.505,0.308,0.75,0.139c1.029-0.707,2.234-1.081,3.485-1.081c0.002,0,0.004,0,0.006,0h4.13
								c0.298,0,0.54-0.242,0.54-0.54c0-0.298-0.242-0.54-0.54-0.54h-4.129C-40.375,316.059-40.378,316.059-40.38,316.059z"/>
						</g>
					</g>
					<g id="g7155" transform="translate(355.1885,459.083)">
						<g id="path7157">
							<path class="st2" d="M-353.092,29.052c-0.17,0-0.336,0.08-0.441,0.229c-0.708,1.005-1.152,2.185-1.281,3.412
								c-0.402,3.801,2.223,7.237,5.927,7.897c-0.003,0.106-0.005,0.212-0.005,0.318c0.012,2.682,0.953,5.3,2.649,7.374
								c1.696,2.074,4.075,3.513,6.698,4.053c3.857,0.795,7.828-0.393,10.624-3.176c0.211-0.21,0.212-0.552,0.002-0.763
								c-0.21-0.211-0.552-0.212-0.763-0.002c-2.538,2.527-6.143,3.605-9.645,2.884c-4.894-1.008-8.463-5.371-8.485-10.373
								c0-0.24,0.01-0.481,0.031-0.736c0.024-0.292-0.19-0.55-0.481-0.581c-3.378-0.358-5.836-3.401-5.478-6.783
								c0.111-1.045,0.487-2.049,1.09-2.904c0.172-0.244,0.113-0.58-0.13-0.752C-352.876,29.084-352.984,29.052-353.092,29.052z"/>
						</g>
					</g>
					<g id="path7159">
						<path class="st2" d="M3.031,474.828H0.873c-0.298,0-0.54,0.242-0.54,0.54v2.156c0,0.298,0.242,0.54,0.54,0.54h2.158
							c0.298,0,0.54-0.242,0.54-0.54v-2.156C3.571,475.07,3.329,474.828,3.031,474.828z M1.413,475.907h1.079v1.077H1.413V475.907z"
							/>
					</g>
					<g id="path7161">
						<path class="st2" d="M14.195,479.47h-2.158c-0.298,0-0.54,0.242-0.54,0.54v2.156c0,0.298,0.242,0.54,0.54,0.54h2.158
							c0.298,0,0.54-0.242,0.54-0.54v-2.156C14.735,479.712,14.493,479.47,14.195,479.47z M12.576,480.549h1.079v1.077h-1.079
							V480.549z"/>
					</g>
					<g id="g7163" transform="translate(37.501,22.4121)">
						<g id="path7165">
							<path class="st2" d="M-21.91,453.494h-12.56v1.079h12.336l1.21,1.209v6.201h1.079v-6.425c0-0.151-0.063-0.292-0.169-0.392
								l-1.506-1.505C-21.62,453.556-21.76,453.494-21.91,453.494z"/>
						</g>
					</g>
					<g id="g7167" transform="translate(177.6836,101.9238)">
						<g id="path7169">
							<rect x="-165.287" y="379.748" class="st2" width="1.439" height="3.949"/>
						</g>
					</g>
					<g id="g7171" transform="translate(7.501,86.9375)">
						<g id="path7173">
							<path class="st2" d="M4.536,393.611H-6.628c-0.298,0-0.54,0.242-0.54,0.54c0,0.298,0.242,0.54,0.54,0.54H4.536
								c0.298,0,0.54-0.242,0.54-0.54C5.075,393.852,4.834,393.611,4.536,393.611z"/>
						</g>
					</g>
					<g id="path7175">
						<path class="st2" d="M36.627,474.828h-2.158c-0.298,0-0.54,0.242-0.54,0.54v2.156c0,0.298,0.242,0.54,0.54,0.54h2.158
							c0.298,0,0.54-0.242,0.54-0.54v-2.156C37.167,475.07,36.925,474.828,36.627,474.828z M35.008,475.907h1.079v1.077h-1.079
							V475.907z"/>
					</g>
					<g id="path7177">
						<path class="st2" d="M25.463,479.47h-2.158c-0.298,0-0.54,0.242-0.54,0.54v2.156c0,0.298,0.242,0.54,0.54,0.54h2.158
							c0.298,0,0.54-0.242,0.54-0.54v-2.156C26.003,479.712,25.761,479.47,25.463,479.47z M23.845,480.549h1.079v1.077h-1.079
							V480.549z"/>
					</g>
					<g id="g7179" transform="translate(334.3164,101.9238)">
						<g id="path7181">
							<rect x="-310.652" y="379.748" class="st2" width="1.439" height="3.949"/>
						</g>
					</g>
					<g id="g7183" transform="translate(504.499,86.9365)">
						<g id="path7185">
							<path class="st2" d="M-467.872,393.612h-11.164c-0.298,0-0.54,0.242-0.54,0.54s0.242,0.54,0.54,0.54h11.164
								c0.298,0,0.54-0.242,0.54-0.54S-467.574,393.612-467.872,393.612z"/>
						</g>
					</g>
					<g id="g7187" transform="translate(474.499,22.4121)">
						<g id="path7189">
							<path class="st2" d="M-440.03,453.494h-12.56c-0.151,0-0.293,0.063-0.393,0.17l-1.505,1.504
								c-0.105,0.1-0.167,0.24-0.167,0.39v6.425c0,0.298,0.242,0.54,0.54,0.54s0.54-0.242,0.54-0.54v-6.201l1.21-1.209h12.336
								c0.298,0,0.54-0.242,0.54-0.54S-439.732,453.494-440.03,453.494z"/>
						</g>
					</g>
					<g id="g7191" transform="translate(362.4551,347.46)">
						<g id="path7193">
							<path class="st2" d="M-343.706,149.367c-4.074,0-8.198,1.032-8.198,3.003c0,1.971,4.124,3.003,8.198,3.003
								c4.074,0,8.198-1.031,8.198-3.003C-335.507,150.398-339.631,149.367-343.706,149.367z M-343.706,154.294
								c-1.991,0-3.856-0.247-5.25-0.696c-1.291-0.415-1.869-0.916-1.869-1.228c0-0.312,0.578-0.813,1.869-1.228
								c1.395-0.449,3.259-0.696,5.25-0.696c1.991,0,3.856,0.247,5.25,0.696c1.291,0.415,1.869,0.916,1.869,1.228
								c0,0.312-0.578,0.813-1.869,1.228C-339.85,154.047-341.714,154.294-343.706,154.294z"/>
						</g>
					</g>
					<g id="g7195" transform="translate(255.9941,244.7314)">
						<g id="path7197">
							<path class="st2" d="M-237.245,247.168c-4.074,0-8.198,1.032-8.198,3.003v4.927c0,0.298,0.242,0.54,0.54,0.54
								c0.298,0,0.54-0.242,0.54-0.54v-4.927c0-0.312,0.578-0.813,1.869-1.228c1.395-0.449,3.259-0.696,5.25-0.696
								c0.298,0,0.54-0.242,0.54-0.54C-236.705,247.41-236.947,247.168-237.245,247.168z"/>
						</g>
					</g>
					<g id="g7199" transform="translate(362.4551,347.46)">
						<g id="path7201">
							<path class="st2" d="M-340.976,144.601c-0.269,0-0.501,0.2-0.535,0.474c-0.036,0.296,0.174,0.565,0.47,0.601
								c3.039,0.373,4.455,1.275,4.455,1.767v4.927c0,0.298,0.242,0.54,0.54,0.54c0.298,0,0.54-0.242,0.54-0.54v-4.927
								c0-1.362-2.02-2.423-5.403-2.838C-340.932,144.602-340.955,144.601-340.976,144.601z"/>
						</g>
					</g>
					<g id="g7203" transform="translate(255.9941,279.9355)">
						<g id="path7205">
							<path class="st2" d="M-237.244,214.497c-0.142,0-0.281,0.058-0.382,0.158c-0.024,0.025-0.047,0.053-0.067,0.082
								c-0.019,0.029-0.036,0.061-0.05,0.094c-0.014,0.032-0.024,0.066-0.031,0.101c-0.007,0.035-0.01,0.071-0.01,0.106
								c0,0.142,0.058,0.281,0.158,0.381c0.025,0.025,0.053,0.047,0.082,0.067c0.029,0.019,0.061,0.037,0.094,0.05
								c0.032,0.014,0.066,0.024,0.101,0.031c0.07,0.014,0.141,0.014,0.211,0c0.035-0.007,0.068-0.017,0.101-0.031
								c0.032-0.013,0.063-0.03,0.093-0.05c0.029-0.019,0.057-0.042,0.082-0.067c0.101-0.1,0.158-0.24,0.158-0.381
								c0-0.035-0.004-0.071-0.011-0.106c-0.007-0.035-0.017-0.068-0.031-0.101c-0.014-0.032-0.03-0.064-0.05-0.094
								c-0.019-0.03-0.042-0.057-0.067-0.082c-0.025-0.024-0.053-0.048-0.082-0.067c-0.03-0.019-0.06-0.036-0.093-0.05
								c-0.033-0.013-0.067-0.024-0.101-0.031C-237.174,214.501-237.209,214.497-237.244,214.497z"/>
						</g>
					</g>
					<g id="g7207" transform="translate(217.3828,282.1016)">
						<g id="path7209">
							<path class="st2" d="M-201.411,212.487c-0.142,0-0.281,0.058-0.382,0.158c-0.024,0.025-0.047,0.053-0.067,0.082
								c-0.019,0.029-0.036,0.06-0.05,0.093c-0.014,0.033-0.024,0.067-0.031,0.101c-0.006,0.035-0.01,0.07-0.01,0.105
								c0,0.035,0.004,0.071,0.01,0.106c0.007,0.035,0.017,0.068,0.031,0.101c0.014,0.033,0.03,0.064,0.05,0.094
								c0.019,0.029,0.042,0.057,0.067,0.082c0.125,0.125,0.312,0.183,0.487,0.148c0.035-0.007,0.068-0.017,0.101-0.031
								c0.033-0.014,0.064-0.03,0.094-0.05c0.03-0.019,0.057-0.042,0.082-0.067c0.024-0.025,0.048-0.053,0.067-0.082
								c0.019-0.029,0.036-0.06,0.05-0.094c0.014-0.032,0.024-0.066,0.031-0.101c0.007-0.035,0.011-0.071,0.011-0.106
								c0-0.142-0.058-0.281-0.158-0.381c-0.025-0.025-0.053-0.047-0.082-0.067c-0.029-0.019-0.06-0.036-0.094-0.05
								c-0.032-0.014-0.066-0.024-0.101-0.031S-201.376,212.487-201.411,212.487z"/>
						</g>
					</g>
					<g id="g7211" transform="translate(294.2139,282.1016)">
						<g id="path7213">
							<path class="st2" d="M-272.715,212.487c-0.035,0-0.071,0.004-0.106,0.011c-0.035,0.007-0.068,0.017-0.101,0.031
								c-0.032,0.014-0.064,0.03-0.094,0.05c-0.029,0.019-0.057,0.042-0.082,0.067c-0.1,0.101-0.158,0.24-0.158,0.381
								c0,0.035,0.004,0.071,0.01,0.106c0.007,0.035,0.017,0.068,0.031,0.101c0.014,0.033,0.03,0.064,0.05,0.094
								c0.019,0.029,0.042,0.057,0.067,0.082c0.025,0.024,0.053,0.048,0.082,0.067c0.03,0.019,0.061,0.036,0.094,0.05
								c0.032,0.014,0.066,0.024,0.101,0.031c0.07,0.014,0.141,0.014,0.211,0c0.035-0.007,0.068-0.017,0.101-0.031
								c0.033-0.014,0.064-0.03,0.094-0.05c0.03-0.019,0.057-0.042,0.082-0.067c0.024-0.025,0.047-0.053,0.067-0.082
								c0.019-0.029,0.036-0.061,0.05-0.094c0.014-0.032,0.024-0.066,0.031-0.101c0.007-0.035,0.011-0.071,0.011-0.106
								c0-0.142-0.058-0.281-0.158-0.381c-0.025-0.025-0.053-0.047-0.082-0.067c-0.029-0.019-0.06-0.036-0.094-0.05
								c-0.032-0.014-0.066-0.024-0.101-0.031C-272.644,212.49-272.679,212.487-272.715,212.487z"/>
						</g>
					</g>
					<g id="g7215" transform="translate(181.7266,210.3311)">
						<g id="path7217">
							<path class="st2" d="M-168.32,279.094c-0.053,0-0.108,0.008-0.161,0.025c-2.226,0.697-2.693,1.625-2.693,2.28
								c0,0.572,0.363,1.396,2.093,2.07c0.278,0.108,0.59-0.029,0.699-0.307c0.108-0.278-0.029-0.59-0.307-0.699
								c-1.037-0.404-1.405-0.826-1.405-1.064c0-0.32,0.599-0.831,1.937-1.25c0.284-0.089,0.443-0.392,0.354-0.676
								C-167.877,279.242-168.09,279.094-168.32,279.094z"/>
						</g>
					</g>
					<g id="g7219" transform="translate(337.4346,256.9209)">
						<g id="path7221">
							<path class="st2" d="M-318.684,231.806c-0.98,0-1.937,0.058-2.845,0.171c-0.296,0.037-0.505,0.307-0.468,0.602
								c0.037,0.296,0.306,0.506,0.602,0.468c0.863-0.108,1.775-0.163,2.711-0.163c1.991,0,3.856,0.247,5.25,0.696
								c1.291,0.415,1.869,0.916,1.869,1.228c0,0.244-0.381,0.674-1.453,1.083c-0.278,0.106-0.418,0.418-0.312,0.696
								c0.106,0.278,0.418,0.418,0.696,0.312c1.775-0.677,2.148-1.511,2.148-2.091C-310.486,232.837-314.61,231.806-318.684,231.806
								z"/>
						</g>
					</g>
					<g id="g7223" transform="translate(362.4658,234.8613)">
						<g id="path7225">
							<path class="st2" d="M-343.715,248.938c-4.074,0-8.198,1.032-8.198,3.003v4.927h1.079v-4.927
								c0-0.312,0.578-0.813,1.869-1.228c1.395-0.449,3.259-0.696,5.25-0.696c1.991,0,3.856,0.247,5.25,0.696
								c1.291,0.415,1.869,0.916,1.869,1.228v4.927h1.079v-4.927C-335.517,249.97-339.641,248.938-343.715,248.938z"/>
						</g>
					</g>
					<g id="g7227" transform="translate(256.0059,167.3379)">
						<g id="path7229">
							<path class="st2" d="M-237.255,318.994c-0.142,0-0.281,0.058-0.382,0.158c-0.024,0.024-0.047,0.052-0.067,0.082
								c-0.019,0.029-0.036,0.06-0.05,0.093c-0.014,0.032-0.024,0.067-0.03,0.101c-0.007,0.035-0.011,0.07-0.011,0.106
								s0.004,0.071,0.011,0.106c0.006,0.034,0.017,0.068,0.03,0.101c0.014,0.032,0.03,0.064,0.05,0.093
								c0.02,0.03,0.042,0.058,0.067,0.082c0.125,0.126,0.311,0.183,0.487,0.147c0.035-0.006,0.068-0.017,0.101-0.03
								c0.032-0.014,0.063-0.03,0.093-0.05c0.03-0.02,0.058-0.042,0.082-0.068c0.025-0.024,0.048-0.052,0.067-0.082
								c0.019-0.029,0.037-0.06,0.05-0.093c0.014-0.032,0.024-0.067,0.031-0.101c0.007-0.035,0.011-0.07,0.011-0.106
								s-0.004-0.07-0.011-0.106c-0.006-0.034-0.017-0.068-0.031-0.101c-0.013-0.032-0.03-0.064-0.05-0.093
								c-0.019-0.03-0.042-0.058-0.067-0.082c-0.024-0.025-0.053-0.048-0.082-0.068c-0.03-0.019-0.06-0.036-0.093-0.049
								c-0.033-0.014-0.067-0.024-0.101-0.031C-237.185,318.998-237.22,318.994-237.255,318.994z"/>
						</g>
					</g>
					<g id="g7231" transform="translate(217.3945,169.5039)">
						<g id="path7233">
							<path class="st2" d="M-201.422,316.984c-0.035,0-0.07,0.004-0.106,0.01c-0.035,0.007-0.068,0.017-0.101,0.031
								c-0.032,0.014-0.064,0.03-0.094,0.05c-0.03,0.019-0.057,0.043-0.082,0.067c-0.024,0.025-0.047,0.052-0.067,0.082
								s-0.036,0.061-0.05,0.094c-0.014,0.032-0.024,0.066-0.031,0.101c-0.006,0.035-0.01,0.07-0.01,0.106
								c0,0.035,0.004,0.071,0.01,0.105c0.007,0.035,0.017,0.068,0.031,0.101c0.014,0.032,0.03,0.063,0.05,0.093
								c0.019,0.029,0.042,0.057,0.067,0.082c0.025,0.025,0.053,0.047,0.082,0.067c0.029,0.019,0.061,0.036,0.094,0.05
								c0.032,0.014,0.066,0.024,0.101,0.031c0.07,0.014,0.142,0.014,0.211,0c0.035-0.007,0.068-0.017,0.101-0.031
								c0.032-0.014,0.063-0.03,0.093-0.05c0.03-0.019,0.057-0.042,0.082-0.067c0.025-0.025,0.047-0.052,0.067-0.082
								c0.019-0.03,0.036-0.06,0.05-0.093c0.014-0.033,0.024-0.067,0.031-0.101c0.007-0.034,0.011-0.07,0.011-0.105
								c0-0.035-0.004-0.07-0.011-0.106c-0.007-0.035-0.017-0.068-0.031-0.101c-0.014-0.032-0.03-0.064-0.05-0.094
								s-0.042-0.057-0.067-0.082c-0.025-0.024-0.053-0.047-0.082-0.067c-0.03-0.019-0.06-0.036-0.093-0.05
								c-0.033-0.014-0.067-0.024-0.101-0.031C-201.351,316.988-201.386,316.984-201.422,316.984z"/>
						</g>
					</g>
					<g id="g7235" transform="translate(294.2256,169.5039)">
						<g id="path7237">
							<path class="st2" d="M-272.725,316.984c-0.142,0-0.281,0.058-0.381,0.158c-0.025,0.025-0.047,0.052-0.068,0.082
								c-0.019,0.03-0.036,0.061-0.05,0.094c-0.013,0.032-0.024,0.066-0.03,0.101c-0.007,0.035-0.011,0.07-0.011,0.106
								c0,0.035,0.004,0.071,0.011,0.105c0.007,0.035,0.017,0.068,0.03,0.101c0.014,0.032,0.03,0.063,0.05,0.093
								c0.02,0.029,0.042,0.057,0.068,0.082c0.124,0.125,0.311,0.183,0.486,0.148c0.035-0.007,0.068-0.017,0.101-0.031
								c0.032-0.014,0.063-0.03,0.093-0.05c0.029-0.019,0.058-0.042,0.082-0.067c0.025-0.025,0.047-0.052,0.067-0.082
								c0.019-0.03,0.037-0.06,0.05-0.093c0.014-0.033,0.024-0.067,0.031-0.101c0.007-0.034,0.011-0.07,0.011-0.105
								c0-0.035-0.004-0.07-0.011-0.106c-0.007-0.035-0.017-0.068-0.031-0.101c-0.013-0.032-0.03-0.064-0.05-0.094
								c-0.019-0.03-0.042-0.057-0.067-0.082c-0.024-0.024-0.053-0.047-0.082-0.067c-0.03-0.019-0.06-0.036-0.093-0.05
								c-0.033-0.014-0.067-0.024-0.101-0.031C-272.655,316.988-272.69,316.984-272.725,316.984z"/>
						</g>
					</g>
				</g>
			</g>
		</g>
	</g>
</g>
</svg>
