<svg width="80" height="12" viewBox="0 0 80 12" fill="none" xmlns="http://www.w3.org/2000/svg">
<g clip-path="url(#clip0_97_194)">
<path d="M5.59616 0.417013L4.06616 3.52001L0.642157 4.01901C0.0281571 4.10801 -0.217843 4.86501 0.227157 5.29901L2.70416 7.71301L2.11816 11.123C2.01316 11.739 2.66216 12.201 3.20516 11.913L6.26816 10.303L9.33116 11.913C9.87516 12.199 10.5242 11.74 10.4182 11.123L9.83216 7.71301L12.3092 5.29901C12.7542 4.86501 12.5082 4.10901 11.8942 4.01901L8.47216 3.52001L6.94216 0.417013C6.66716 -0.135987 5.87316 -0.142987 5.59616 0.417013Z" fill="#F9C514"/>
<path d="M73.059 0.417013L71.529 3.52001L68.105 4.01901C67.491 4.10801 67.245 4.86501 67.69 5.29901L70.167 7.71301L69.581 11.123C69.476 11.739 70.125 12.201 70.668 11.913L73.731 10.303L76.794 11.913C77.338 12.199 77.987 11.74 77.881 11.123L77.295 7.71301L79.772 5.29901C80.217 4.86501 79.971 4.10901 79.357 4.01901L75.934 3.52001L74.404 0.417013C74.13 -0.135987 73.335 -0.142987 73.059 0.417013Z" fill="#F9C514"/>
<path d="M56.1928 0.417013L54.6628 3.52001L51.2388 4.01901C50.6248 4.10801 50.3788 4.86501 50.8238 5.29901L53.3008 7.71301L52.7148 11.123C52.6098 11.739 53.2588 12.201 53.8018 11.913L56.8648 10.303L59.9278 11.913C60.4718 12.199 61.1208 11.74 61.0148 11.123L60.4288 7.71301L62.9058 5.29901C63.3508 4.86501 63.1048 4.10901 62.4908 4.01901L59.0678 3.52001L57.5378 0.417013C57.2638 -0.135987 56.4698 -0.142987 56.1928 0.417013Z" fill="#F9C514"/>
<path d="M39.3266 0.417013L37.7966 3.52001L34.3726 4.01901C33.7586 4.10801 33.5126 4.86501 33.9576 5.29901L36.4346 7.71301L35.8486 11.123C35.7436 11.739 36.3926 12.201 36.9356 11.913L39.9996 10.302L43.0626 11.912C43.6066 12.198 44.2556 11.739 44.1496 11.122L43.5636 7.71201L46.0406 5.29801C46.4856 4.86401 46.2396 4.10801 45.6256 4.01801L42.2026 3.52001L40.6726 0.417013C40.3976 -0.135987 39.6036 -0.142987 39.3266 0.417013Z" fill="#F9C514"/>
<path d="M22.4624 0.417013L20.9324 3.52001L17.5084 4.01901C16.8944 4.10801 16.6484 4.86501 17.0934 5.29901L19.5704 7.71301L18.9844 11.123C18.8794 11.739 19.5284 12.201 20.0714 11.913L23.1344 10.303L26.1974 11.913C26.7414 12.199 27.3904 11.74 27.2844 11.123L26.6984 7.71301L29.1754 5.29901C29.6204 4.86501 29.3744 4.10901 28.7604 4.01901L25.3374 3.52001L23.8074 0.417013C23.5334 -0.135987 22.7384 -0.142987 22.4624 0.417013Z" fill="#F9C514"/>
</g>
<defs>
<clipPath id="clip0_97_194">
<rect width="80" height="12" fill="white"/>
</clipPath>
</defs>
</svg>
